<svg xmlns="http://www.w3.org/2000/svg" xmlns:xlink="http://www.w3.org/1999/xlink" version="1.1" width="1000" height="1000" viewBox="0 0 1000 1000" xml:space="preserve">
<desc>Created with Fabric.js 3.5.0</desc>
<defs>
</defs>
<rect x="0" y="0" width="100%" height="100%" fill="#ffffff"/>
<g transform="matrix(0.05 0 0 0.05 500 298.3646)" id="100795">
<g style="" vector-effect="non-scaling-stroke">
		<g transform="matrix(1 0 0 1 0 0)">
<path style="stroke: none; stroke-width: 1; stroke-dasharray: none; stroke-linecap: butt; stroke-dashoffset: 0; stroke-linejoin: miter; stroke-miterlimit: 4; is-custom-font: none; font-file-url: none; fill: rgb(242,242,242); fill-rule: nonzero; opacity: 1;" transform=" translate(-600, -600)" d="M 0 0 C 396 0 792 0 1200 0 C 1200 396 1200 792 1200 1200 C 804 1200 408 1200 0 1200 C 0 804 0 408 0 0 Z" stroke-linecap="round"/>
</g>
		<g transform="matrix(1 0 0 1 0.1031 -166)">
<path style="stroke: none; stroke-width: 1; stroke-dasharray: none; stroke-linecap: butt; stroke-dashoffset: 0; stroke-linejoin: miter; stroke-miterlimit: 4; is-custom-font: none; font-file-url: none; fill: rgb(48,56,65); fill-rule: nonzero; opacity: 1;" transform=" translate(-36.1031, -188)" d="M 0 0 C 1.15405273 1.3984375 1.15405273 1.3984375 2.43359375 3.375 C 3.15204468 4.47122681 3.15204468 4.47122681 3.88500977 5.58959961 C 4.65349243 6.7827478 4.65349243 6.7827478 5.4375 8 C 6.51728876 9.64775206 7.59803936 11.29487416 8.6796875 12.94140625 C 9.50484863 14.20235107 9.50484863 14.20235107 10.34667969 15.48876953 C 12.87772883 19.33318352 15.46170039 23.14004059 18.0625 26.9375 C 18.51488037 27.60458984 18.96726074 28.27167969 19.43334961 28.95898438 C 21.4425442 31.89002682 23.43783281 34.54195972 26 37 C 26.99 35.68 27.98 34.36 29 33 C 30.5625 34.4375 30.5625 34.4375 32 37 C 31.690625 38.27875 31.38125 39.5575 31.0625 40.875 C 30.37778259 45.81929666 32.03886556 48.10937894 34.9375 52.0625 C 35.85911306 53.25901881 36.78241435 54.4542384 37.70703125 55.6484375 C 41.81268176 60.9586331 45.44004009 66.58141376 49.125 72.1875 C 52.96882442 78.02994318 56.83479025 83.8282203 60.9765625 89.46484375 C 65.2670641 95.3060597 69.26548015 101.3224689 73.25 107.375 C 74.62799464 109.46760524 76.00812929 111.55880319 77.390625 113.6484375 C 78.2882959 115.01234619 78.2882959 115.01234619 79.20410156 116.40380859 C 80.96013773 119.07522864 80.96013773 119.07522864 83.28808594 121.45947266 C 85 124 85 124 84.91894531 126.97094727 C 83.98279207 130.05672124 82.8435826 132.63712831 81.296875 135.46484375 C 80.73572998 136.49947754 80.17458496 137.53411133 79.59643555 138.60009766 C 78.98711182 139.70144043 78.37778809 140.8027832 77.75 141.9375 C 77.11811768 143.09556152 76.48623535 144.25362305 75.83520508 145.44677734 C 71.35342876 153.646623 66.74221146 161.77227911 62.1105957 169.88818359 C 56.62051811 179.56278662 51.43369755 189.39355601 46.23608398 199.22705078 C 45.51551764 200.59019856 44.79489653 201.95331739 44.07421875 203.31640625 C 43.72310532 203.98051514 43.37199188 204.64462402 43.01023865 205.32885742 C 39.03847973 212.83148957 34.9679931 220.27918257 30.88671875 227.72265625 C 28.85378752 231.430996 26.83766177 235.1479175 24.83203125 238.87109375 C 17.39204514 252.67977924 9.77161398 266.37516698 2 280 C 1.01 280 0.02 280 -1 280 C -2.9453125 277.98046875 -2.9453125 277.98046875 -5.125 275.1875 C -5.92164063 274.18074219 -6.71828125 273.17398437 -7.5390625 272.13671875 C -8.35117187 271.10160156 -9.16328125 270.06648438 -10 269 C -11.49537799 267.16289473 -12.99526106 265.32944577 -14.5 263.5 C -16.69225146 260.8210008 -18.88419468 258.14175792 -21.07421875 255.4609375 C -26.30546415 249.05967233 -31.55837477 242.676505 -36.81567383 236.29663086 C -41.55686677 230.54173651 -46.28444503 224.77593109 -51 219 C -51.66 220.65 -52.32 222.3 -53 224 C -46.32620888 232.43550617 -39.47703802 240.72366488 -32.63183594 249.02001953 C -28.33847914 254.22934383 -24.07152468 259.46035498 -19.8046875 264.69140625 C -18.32003641 266.50971586 -16.83308677 268.32615133 -15.34375 270.140625 C -13.64908432 272.20811713 -11.96274826 274.28125215 -10.28125 276.359375 C -9.37525445 277.46895781 -8.46900981 278.57833729 -7.5625 279.6875 C -6.73878906 280.70199219 -5.91507813 281.71648437 -5.06640625 282.76171875 C -4.38449219 283.50035156 -3.70257812 284.23898437 -3 285 C -0.87635519 285.22609337 -0.87635519 285.22609337 0.625 283.5 C 1.07875 283.005 1.5325 282.51 2 282 C 3.32 283.32 4.64 284.64 6 286 C 6.25265625 285.15824219 6.5053125 284.31648438 6.765625 283.44921875 C 8.10728215 279.70022107 9.84075756 276.29213078 11.75 272.8125 C 12.07226562 272.21630859 12.39453125 271.62011719 12.7265625 271.00585938 C 13.81217263 269.00084687 14.90575888 267.00031493 16 265 C 16.97277631 263.2162113 17.94542442 261.43235269 18.91796875 259.6484375 C 20.86244421 256.08417787 22.80782794 252.52041594 24.75390625 248.95703125 C 30.01933041 239.31369776 35.27059248 229.66291631 40.5 220 C 57.51084107 188.57836125 57.51084107 188.57836125 64.91015625 175.5703125 C 67.33194282 171.27876423 69.58019571 166.92376926 71.75 162.5 C 73.85300454 158.21681644 76.05653705 154.18909282 78.6796875 150.2109375 C 80.87896221 146.52812836 82.6886054 142.63126192 84.50195312 138.74609375 C 86.06539878 135.48981383 86.91805694 134.0546287 90 132 C 99.21667047 144.91044207 108.15023628 158.00405319 117.05224609 171.1328125 C 120.9194407 176.8255091 124.82419257 182.49228861 128.73046875 188.15820312 C 130.94759045 191.37473507 133.16143251 194.59352145 135.375 197.8125 C 135.82407715 198.46549072 136.2731543 199.11848145 136.73583984 199.79125977 C 140.88812976 205.8318215 145.02612448 211.88212951 149.16357422 217.93286133 C 153.03948432 223.59981606 156.92522739 229.25990437 160.81835938 234.91503906 C 163.3755079 238.63130382 165.9253366 242.35244362 168.46875 246.078125 C 169.05591797 246.93792969 169.64308594 247.79773438 170.24804688 248.68359375 C 171.39076088 250.357536 172.5327238 252.03199129 173.67382812 253.70703125 C 174.4540332 254.84978516 174.4540332 254.84978516 175.25 256.015625 C 175.70890625 256.68883789 176.1678125 257.36205078 176.640625 258.05566406 C 178.05028922 260.07192948 179.51333628 262.04000878 181 264 C 183.22656894 261.33963244 183.22656894 261.33963244 182.83227539 259.14086914 C 181.76872927 256.40510032 180.32080685 254.18397988 178.68359375 251.74609375 C 178.00103516 250.72580078 177.31847656 249.70550781 176.61523438 248.65429688 C 175.89658203 247.59275391 175.17792969 246.53121094 174.4375 245.4375 C 173.74591797 244.40302734 173.05433594 243.36855469 172.34179688 242.30273438 C 168.35133637 236.3635308 164.2335031 230.54091449 160.00268555 224.77124023 C 156.45391959 219.86059262 153.07815008 214.8330005 149.6875 209.8125 C 148.18699581 207.59711519 146.68521077 205.38259936 145.18359375 203.16796875 C 144.46413574 202.10626465 143.74467773 201.04456055 143.00341797 199.95068359 C 140.43337158 196.16545563 137.84630216 192.39225055 135.25 188.625 C 131.32220816 182.92423106 127.40723883 177.21487852 123.5 171.5 C 119.07229505 165.02464381 114.6351263 158.5559401 110.18823242 152.09375 C 104.44223807 143.74053308 98.72194579 135.36969976 93 127 C 91.68 128.32 90.36 129.64 89 131 C 87.375 129.375 87.375 129.375 86 127 C 86.8125 123.75 86.8125 123.75 88 121 C 90 121 90 121 91.625 122.5 C 92.07875 122.995 92.5325 123.49 93 124 C 93.39155273 123.26700684 93.78310547 122.53401367 94.18652344 121.77880859 C 102.27135708 106.64983355 110.39373063 91.54363979 118.63305664 76.49804688 C 120.62307493 72.86134976 122.60739227 69.22154964 124.59179688 65.58178711 C 126.03888254 62.92871309 127.4880314 60.27677274 128.9375 57.625 C 132.31719715 51.43038268 135.65978058 45.21597045 139 39 C 142.65709179 40.37300618 145.95590808 42.02306228 149.33203125 43.984375 C 150.36553711 44.58266113 151.39904297 45.18094727 152.46386719 45.79736328 C 153.56891602 46.4417334 154.67396484 47.08610352 155.8125 47.75 C 156.97673748 48.42587788 158.14112792 49.10149233 159.30566406 49.77685547 C 162.29544037 51.51195642 165.28275976 53.25124008 168.26934814 54.99182129 C 170.93746648 56.54611431 173.60757231 58.09698618 176.27734375 59.6484375 C 186.34820096 65.50664322 196.39972679 71.39779382 206.4375 77.3125 C 207.8601416 78.149021 207.8601416 78.149021 209.31152344 79.00244141 C 210.60944824 79.76886963 210.60944824 79.76886963 211.93359375 80.55078125 C 212.69728271 81.00106689 213.46097168 81.45135254 214.24780273 81.9152832 C 216 83 216 83 217 84 C 217.12382731 85.46549458 217.17952113 86.93681101 217.20773315 88.40725708 C 217.23797577 89.8361451 217.23797577 89.8361451 217.26882935 91.29389954 C 217.29407181 92.87536018 217.29407181 92.87536018 217.31982422 94.48876953 C 217.34085205 95.59313858 217.36187988 96.69750763 217.38354492 97.83534241 C 217.56764721 108.10777892 217.6745364 118.38144419 217.75568962 128.65516853 C 217.81679971 136.2276647 217.91946503 143.7971131 218.07838428 151.36819947 C 218.19986371 157.36266788 218.24755028 163.35573755 218.27234268 169.35146713 C 218.29360461 171.87822623 218.33718774 174.40491403 218.405056 176.93085098 C 218.86437001 194.87349697 215.65398216 206.6348199 205.59792709 221.55924225 C 203.17032207 225.26729365 201.10531278 229.14909949 199.046875 233.0703125 C 198.31954799 234.43127701 197.59175932 235.79199502 196.86328125 237.15234375 C 196.34241943 238.13243408 196.34241943 238.13243408 195.81103516 239.13232422 C 194.71284256 241.19478348 193.6044527 243.25158314 192.49609375 245.30859375 C 191.78324106 246.6455066 191.07097589 247.98273293 190.359375 249.3203125 C 190.03346375 249.92231476 189.70755249 250.52431702 189.37176514 251.14456177 C 187.66081046 254.39105523 186.33535957 257.32167806 186 261 C 187.33378575 262.8354799 187.33378575 262.8354799 189 264 C 189.26167969 263.31550781 189.52335937 262.63101562 189.79296875 261.92578125 C 193.05572407 254.01703131 197.00747508 246.33612005 201.69140625 239.1796875 C 203.45100657 236.24877114 204.93572172 233.19286034 206.4375 230.125 C 209.31892778 224.25029022 212.28948422 218.40390553 216 213 C 216.33 213 216.66 213 217 213 C 217 240.39 217 267.78 217 296 C 213 298 213 298 210 298 C 208.3560139 295.86527177 206.92525221 293.77557026 205.5 291.5 C 204.61571506 290.13208024 203.73025489 288.76491963 202.84375 287.3984375 C 202.15152344 286.32287598 202.15152344 286.32287598 201.4453125 285.22558594 C 199.01814436 281.48807499 196.51423365 277.80428466 194 274.125 C 193.29713867 273.08182617 193.29713867 273.08182617 192.58007812 272.01757812 C 190.3132821 268.45547128 190.3132821 268.45547128 187 266 C 186.34 267.32 185.68 268.64 185 270 C 183.02 268.515 183.02 268.515 181 267 C 173.91777075 279.29608292 167.04742905 291.68627485 160.41693115 304.23052979 C 159.30984761 306.31750003 158.19355982 308.39929936 157.07470703 310.47998047 C 154.05766211 316.10589716 151.06715529 321.68317725 148.5390625 327.55078125 C 142.62559682 340.80603991 132.88873609 345.82357711 120.26953125 352.28808594 C 114.85739014 355.12186233 109.62920446 358.26111976 104.375 361.375 C 102.39435456 362.53317674 100.41262107 363.6894952 98.4296875 364.84375 C 97.50639648 365.38128906 96.58310547 365.91882813 95.63183594 366.47265625 C 90.10568992 369.67966641 84.55826454 372.849012 79 376 C 75.17550651 372.27339117 71.64648101 368.37877024 68.1875 364.3125 C 67.66051514 363.69528076 67.13353027 363.07806152 66.59057617 362.44213867 C 62.95331708 358.16487309 59.40486506 353.8259864 55.921875 349.421875 C 52.33622706 344.90337556 48.65847685 340.45955713 45 336 C 43.60403235 334.29177642 42.20820102 332.58344143 40.8125 330.875 C 36.88554451 326.07462359 32.94382053 321.28652619 29 316.5 C 27.20804226 314.32432437 25.41621256 312.14854344 23.62451172 309.97265625 C 22.6185542 308.7511148 21.61240698 307.52972951 20.60595703 306.30859375 C 16.10148658 300.84100214 11.670734 295.34031326 7.41015625 289.6796875 C 6.08730926 287.87804075 6.08730926 287.87804075 4 287 C 3.67 288.32 3.34 289.64 3 291 C 1 290 -1 289 -3 288 C -3.26248535 288.69552979 -3.5249707 289.39105957 -3.79541016 290.10766602 C -5.11601288 293.27855788 -6.65304781 296.2484546 -8.2734375 299.27734375 C -8.59338684 299.87685852 -8.91333618 300.47637329 -9.24298096 301.09405518 C -10.28431272 303.04331434 -11.32952144 304.99046227 -12.375 306.9375 C -13.09826501 308.28875388 -13.82140852 309.6400728 -14.54443359 310.99145508 C -20.18757165 321.52847698 -25.89014866 332.0327483 -31.63769531 342.51318359 C -34.09844676 347.00515747 -36.54874597 351.50283838 -39 356 C -43.38878624 355.04775031 -46.9974283 352.94235024 -50.875 350.75 C -51.6580249 350.31107422 -52.4410498 349.87214844 -53.24780273 349.41992188 C -62.35633346 344.28392847 -71.33999321 338.93527598 -80.32568359 333.58837891 C -84.50114554 331.10841219 -88.68770059 328.64740991 -92.875 326.1875 C -93.60082275 325.76082031 -94.32664551 325.33414062 -95.07446289 324.89453125 C -96.71617543 323.92946093 -98.35806477 322.96469139 -100 322 C -99.11982633 318.15716383 -97.57793888 314.78789922 -95.875 311.25 C -93.27284902 305.77032741 -90.77844496 300.25710432 -88.375 294.6875 C -86.18020647 289.62041847 -83.87937262 284.64029968 -81.3671875 279.72265625 C -76.20445668 269.44144659 -71.50311287 258.93851662 -66.87329102 248.40942383 C -64.48513031 243.00951064 -61.93704198 237.72729075 -59.2265625 232.48046875 C -56.7197455 227.41095029 -55.68776759 224.64259934 -57 219 C -57.66 219 -58.32 219 -59 219 C -59.25040039 219.81919922 -59.50080078 220.63839844 -59.75878906 221.48242188 C -61.19956979 225.56557859 -62.98151063 229.38464408 -64.859375 233.28125 C -65.24039871 234.07939117 -65.62142242 234.87753235 -66.01399231 235.69985962 C -66.83159267 237.41179791 -67.65071587 239.12300959 -68.47122192 240.83355713 C -70.63800677 245.35162646 -72.79277403 249.87542633 -74.94921875 254.3984375 C -75.59738808 255.756772 -75.59738808 255.756772 -76.25865173 257.14254761 C -79.77232292 264.50977919 -83.25486983 271.89105256 -86.70553589 279.28799438 C -87.27503707 280.50878865 -87.84512217 281.72931071 -88.415802 282.94955444 C -91.32680316 289.17478721 -94.19766704 295.41379843 -96.9765625 301.69921875 C -97.43732178 302.7361084 -97.89808105 303.77299805 -98.37280273 304.84130859 C -99.22317943 306.76314414 -100.06447544 308.68903459 -100.89477539 310.61962891 C -101.2633667 311.45284668 -101.63195801 312.28606445 -102.01171875 313.14453125 C -102.32584717 313.87003174 -102.63997559 314.59553223 -102.96362305 315.34301758 C -104 317 -104 317 -107 318 C -109.3215332 316.95532227 -109.3215332 316.95532227 -112.05078125 315.31640625 C -113.56575195 314.41825195 -113.56575195 314.41825195 -115.11132812 313.50195312 C -116.6959082 312.54192383 -116.6959082 312.54192383 -118.3125 311.5625 C -127.16005004 306.28096822 -136.05023384 301.11415209 -145 296 C -145 235.61 -145 175.22 -145 113 C -141.29916731 116.70083269 -138.085116 120.31355899 -134.9375 124.4375 C -131.02547471 129.49403295 -126.9980742 134.41752811 -122.8125 139.25 C -118.73747979 143.95643441 -114.76609262 148.71854246 -110.90234375 153.6015625 C -104.44645552 161.74101911 -97.77098827 169.70969456 -91.16479492 177.72729492 C -86.43023628 183.47433947 -81.71081214 189.23346913 -77 195 C -75.50014304 196.83345036 -74.0001406 198.66678171 -72.5 200.5 C -68 206 -63.5 211.5 -59 217 C -57.68 215.68 -56.36 214.36 -55 213 C -54.34 214.32 -53.68 215.64 -53 217 C -52.34 217 -51.68 217 -51 217 C -50.79375 216.0925 -50.5875 215.185 -50.375 214.25 C -49.07187235 209.70715221 -46.91444146 205.67769644 -44.765625 201.484375 C -42.81945461 197.64370247 -40.95819164 193.77053224 -39.125 189.875 C -38.78919922 189.16142334 -38.45339844 188.44784668 -38.10742188 187.71264648 C -35.62396571 182.40231504 -33.23704182 177.05274162 -30.875 171.6875 C -28.25641767 165.74184444 -25.50950276 159.89923442 -22.55859375 154.109375 C -19.23270079 147.47426023 -16.1379463 140.72550413 -13 134 C -12.6994873 133.35627441 -12.39897461 132.71254883 -12.08935547 132.04931641 C -10.94053239 129.58810248 -9.79206083 127.12672603 -8.64477539 124.66479492 C -6.10419161 119.21514573 -3.54304353 113.77527246 -0.98046875 108.3359375 C 1.18926667 103.72839125 3.34899283 99.11631676 5.5 94.5 C 8.32154471 88.44463007 11.16237812 82.39851039 14.01074219 76.35571289 C 15.65550447 72.86438927 17.29516072 69.37086764 18.921875 65.87109375 C 19.22794678 65.21286621 19.53401855 64.55463867 19.84936523 63.87646484 C 20.4410909 62.60254637 21.03178076 61.32814616 21.62133789 60.05322266 C 23.14289976 56.77717505 24.73945866 53.56255129 26.4375 50.375 C 28.50945654 45.89957387 28.53205126 43.59615379 27 39 C 26.34 39 25.68 39 25 39 C 24.63648438 40.21042969 24.27296875 41.42085938 23.8984375 42.66796875 C 21.94630736 48.51183091 19.26033496 53.95155108 16.53546143 59.46810913 C 14.94827375 62.68339578 13.38117652 65.90846477 11.8125 69.1328125 C 11.49100983 69.7927269 11.16951965 70.4526413 10.83828735 71.1325531 C 7.68736661 77.61399697 4.64505363 84.14412922 1.625 90.6875 C -3.1866659 101.10378487 -8.04472044 111.49662871 -12.9375 121.875 C -18.54835381 133.77923514 -24.13171001 145.69578747 -29.6887207 157.62524414 C -32.87465643 164.46130413 -36.07433947 171.29070674 -39.2890625 178.11328125 C -39.65086609 178.88123016 -40.01266968 179.64917908 -40.38543701 180.44039917 C -42.14601852 184.17650144 -43.90801504 187.91192884 -45.671875 191.64648438 C -48.8576902 198.3983227 -52.00852691 205.15909326 -55 212 C -55.66 212 -56.32 212 -57 212 C -58.234375 210.62890625 -58.234375 210.62890625 -59.75 208.5625 C -63.33760102 203.81155555 -67.08104702 199.21114691 -70.875 194.625 C -71.48786865 193.88306396 -72.1007373 193.14112793 -72.73217773 192.37670898 C -73.93855848 190.91630264 -75.14517613 189.45609196 -76.35205078 187.99609375 C -80.60685306 182.84242509 -84.8270957 177.66036192 -89.0546875 172.484375 C -93.69063373 166.812558 -98.34167208 161.15344292 -103 155.5 C -109.03536619 148.175355 -115.05094229 140.834968 -121.0546875 133.484375 C -124.5525222 129.20497284 -128.05563109 124.93032291 -131.57421875 120.66796875 C -132.20110596 119.90822754 -132.82799316 119.14848633 -133.47387695 118.36572266 C -134.72032926 116.85563776 -135.96753598 115.34617517 -137.21557617 113.83740234 C -137.79154541 113.13953613 -138.36751465 112.44166992 -138.9609375 111.72265625 C -139.47446777 111.10140869 -139.98799805 110.48016113 -140.51708984 109.84008789 C -141.0064502 109.23285889 -141.49581055 108.62562988 -142 108 C -142.81331787 107.03356567 -142.81331787 107.03356567 -143.64306641 106.04760742 C -147.19675183 100.68511018 -146.31446254 92.36308658 -145.55859375 86.21582031 C -144.66667659 82.67777831 -143.07556407 81.48179001 -140 79.625 C -138.11233503 78.74967973 -136.22159095 77.87949895 -134.30712891 77.06445312 C -129.56835704 74.87809912 -125.16418342 72.0464529 -120.6875 69.375 C -118.58889057 68.15081117 -116.48860054 66.92949927 -114.38671875 65.7109375 C -108.25332808 62.14828946 -102.12594199 58.57543686 -96 55 C -89.83720778 51.40406577 -83.67363379 47.80948838 -77.5078125 44.21875 C -76.43917969 43.59613281 -75.37054688 42.97351563 -74.26953125 42.33203125 C -72.24379486 41.15181961 -70.21777509 39.97209416 -68.19140625 38.79296875 C -63.80075149 36.23429789 -59.42191466 33.65975975 -55.0703125 31.03515625 C -49.34336774 27.58814334 -43.54717723 24.26458702 -37.75 20.9375 C -30.97055756 17.04243937 -24.20148044 13.13479753 -17.484375 9.1328125 C -16.47407227 8.53090088 -15.46376953 7.92898926 -14.42285156 7.30883789 C -12.50582116 6.16345546 -10.59102191 5.01432864 -8.67871094 3.86108398 C -7.82567383 3.35134033 -6.97263672 2.84159668 -6.09375 2.31640625 C -5.34802734 1.86724854 -4.60230469 1.41809082 -3.83398438 0.95532227 C -2 0 -2 0 0 0 Z" stroke-linecap="round"/>
</g>
		<g transform="matrix(1 0 0 1 47.4538 -299)">
<path style="stroke: none; stroke-width: 1; stroke-dasharray: none; stroke-linecap: butt; stroke-dashoffset: 0; stroke-linejoin: miter; stroke-miterlimit: 4; is-custom-font: none; font-file-url: none; fill: rgb(48,56,65); fill-rule: nonzero; opacity: 1;" transform=" translate(-28.4538, -65)" d="M 0 0 C 3.76723044 1.41174711 7.17394666 3.13541188 10.6640625 5.1328125 C 11.77273682 5.76614502 12.88141113 6.39947754 14.02368164 7.05200195 C 15.2242404 7.742794 16.42467669 8.43379892 17.625 9.125 C 18.87424204 9.84143451 20.12351004 10.55782376 21.37280273 11.27416992 C 31.108126 16.86704016 40.7757878 22.57070297 50.42358398 28.31298828 C 59.90350738 33.9551796 69.4360815 39.50162055 79 45 C 78.39916261 48.92848397 77.19147512 51.88354816 75.296875 55.3671875 C 74.73564941 56.40520508 74.17442383 57.44322266 73.59619141 58.51269531 C 72.98694824 59.62225586 72.37770508 60.73181641 71.75 61.875 C 71.11209247 63.04764766 70.47456556 64.22050244 69.83740234 65.39355469 C 65.34329208 73.6452299 60.72703485 81.82616404 56.06225586 89.98242188 C 52.84918154 95.6315685 49.7388369 101.32658595 46.69921875 107.0703125 C 46.33437378 107.75919556 45.96952881 108.44807861 45.59362793 109.15783691 C 43.78774124 112.57215708 41.99055082 115.99076514 40.20361328 119.41503906 C 39.54861757 120.65956572 38.89351232 121.90403474 38.23828125 123.1484375 C 37.66118408 124.25364746 37.08408691 125.35885742 36.48950195 126.49755859 C 35 129 35 129 33 130 C 32.56768066 129.34628418 32.13536133 128.69256836 31.68994141 128.01904297 C 24.47690975 117.12382092 17.27447607 106.24468339 9.609375 95.66015625 C 4.22019812 88.16356353 -0.89102277 80.46630181 -6.07763672 72.82910156 C -9.17039675 68.27755175 -12.271229 63.73154606 -15.375 59.1875 C -15.92841064 58.37514893 -16.48182129 57.56279785 -17.05200195 56.72583008 C -17.55820068 55.98486084 -18.06439941 55.2438916 -18.5859375 54.48046875 C -19.25181885 53.50436646 -19.25181885 53.50436646 -19.93115234 52.50854492 C -20.91837926 51.0255647 -20.91837926 51.0255647 -22 50 C -22.40664995 45.84636119 -21.45262323 43.38520282 -19.5 39.75 C -16.91598249 34.80033266 -14.47643788 29.81423642 -12.125 24.75 C -8.23799881 16.42111686 -4.14991043 8.20048789 0 0 Z" stroke-linecap="round"/>
</g>
		<g transform="matrix(1 0 0 1 -17 -7.7055)">
<path style="stroke: none; stroke-width: 1; stroke-dasharray: none; stroke-linecap: butt; stroke-dashoffset: 0; stroke-linejoin: miter; stroke-miterlimit: 4; is-custom-font: none; font-file-url: none; fill: rgb(48,56,65); fill-rule: nonzero; opacity: 1;" transform=" translate(-18, -53.2945)" d="M 0 0 C 3.17404746 1.37159745 4.97625583 2.84226057 7.13671875 5.52734375 C 7.7090625 6.23117187 8.28140625 6.935 8.87109375 7.66015625 C 9.47050781 8.41167969 10.06992187 9.16320312 10.6875 9.9375 C 11.31398438 10.7109375 11.94046875 11.484375 12.5859375 12.28125 C 13.83536657 13.8243593 15.08201559 15.36972428 16.32568359 16.91748047 C 18.36815183 19.4579083 20.43204707 21.98029087 22.5 24.5 C 23.1909375 25.345625 23.881875 26.19125 24.59375 27.0625 C 27.72176157 30.88111153 30.86086292 34.69053284 34 38.5 C 39.34687778 44.98903285 44.68004995 51.48886569 50 58 C 51.03447266 59.26263672 51.03447266 59.26263672 52.08984375 60.55078125 C 53.54475284 62.32666486 54.99784332 64.10403977 56.44921875 65.8828125 C 58.44185976 68.32341157 60.44859443 70.75207489 62.45703125 73.1796875 C 63.65898071 74.64052089 64.86080403 76.10145808 66.0625 77.5625 C 66.64741211 78.26592529 67.23232422 78.96935059 67.83496094 79.6940918 C 68.37540039 80.35320557 68.91583984 81.01231934 69.47265625 81.69140625 C 69.96000244 82.28123291 70.44734863 82.87105957 70.94946289 83.47875977 C 72 85 72 85 72 87 C 71.04222656 87.53367187 70.08445312 88.06734375 69.09765625 88.6171875 C 67.7525941 89.36977367 66.40754291 90.12237944 65.0625 90.875 C 64.34900391 91.27195068 63.63550781 91.66890137 62.90039062 92.07788086 C 59.02465969 94.24763128 55.20169092 96.47189469 51.43359375 98.82421875 C 50.3206897 99.50991943 50.3206897 99.50991943 49.18530273 100.20947266 C 47.76034023 101.09173633 46.34391234 101.98798221 44.93774414 102.89990234 C 41.15877685 105.22180169 37.8165474 106.84931705 33.22900391 106.55444336 C 28.08139455 105.27402487 23.66950229 102.24121857 19.1875 99.5 C 17.46622326 98.47686779 15.74494178 97.45374348 14.02340698 96.43104553 C 12.22512552 95.35858875 10.43201428 94.27794252 8.64013672 93.19482422 C 5.03412484 91.0164567 1.41206187 88.86601299 -2.21484375 86.72265625 C -3.39763308 86.02345337 -4.5804131 85.32423474 -5.76318359 84.625 C -6.63000763 84.11259766 -6.63000763 84.11259766 -7.51434326 83.58984375 C -10.33625922 81.91953783 -13.15398054 80.24217259 -15.97265625 78.56640625 C -22.60436516 74.63202635 -29.27766608 70.77742978 -36 67 C -34.36950557 62.50746748 -32.12010025 58.50484024 -29.75 54.375 C -22.58983772 41.82600478 -15.83298356 29.06720557 -9.08447266 16.29394531 C -7.95876218 14.16396636 -6.83108415 12.03503878 -5.703125 9.90625 C -5.18906097 8.93129578 -5.18906097 8.93129578 -4.66461182 7.93664551 C -3.21073327 5.19536932 -1.72329475 2.58494213 0 0 Z" stroke-linecap="round"/>
</g>
		<g transform="matrix(1 0 0 1 28.9772 -192.5)">
<path style="stroke: none; stroke-width: 1; stroke-dasharray: none; stroke-linecap: butt; stroke-dashoffset: 0; stroke-linejoin: miter; stroke-miterlimit: 4; is-custom-font: none; font-file-url: none; fill: rgb(232,232,233); fill-rule: nonzero; opacity: 1;" transform=" translate(-32.9772, -124.5)" d="M 0 0 C 3.53002421 4.23102192 6.54013341 8.71638286 9.5625 13.3125 C 14.84016425 21.28364316 20.21471524 29.18111101 25.64990234 37.04541016 C 27.89642459 40.29778938 30.1357654 43.55510078 32.375 46.8125 C 32.82004883 47.45985107 33.26509766 48.10720215 33.72363281 48.77416992 C 37.42436312 54.15890348 41.12021365 59.54697322 44.8125 64.9375 C 45.33956543 65.70618408 45.86663086 66.47486816 46.40966797 67.2668457 C 47.43054196 68.75821085 48.44755998 70.25222382 49.46044922 71.74902344 C 50.53679928 73.32275442 51.63400845 74.8823299 52.74658203 76.43066406 C 53.3032959 77.22053711 53.86000977 78.01041016 54.43359375 78.82421875 C 54.9433374 79.53280029 55.45308105 80.24138184 55.97827148 80.97143555 C 57 83 57 83 56.25 86.875 C 55.8375 87.90625 55.425 88.9375 55 90 C 55.99 91.485 55.99 91.485 57 93 C 58.98 91.02 58.98 91.02 61 89 C 67.29025569 97.49853695 73.1888028 106.20876675 79 115.0390625 C 82.2387498 119.9351413 85.52432724 124.76846891 89 129.5 C 93.91115722 136.18569645 98.44070758 143.11107519 103 150.0390625 C 106.2387498 154.9351413 109.52432724 159.76846891 113 164.5 C 117.91115722 171.18569645 122.44070758 178.11107519 127 185.0390625 C 131.4918287 191.82944417 136.16804845 198.44798895 141 205 C 143.04168879 207.77736285 145.06185591 210.56795962 147.0625 213.375 C 147.55943359 214.04660156 148.05636719 214.71820313 148.56835938 215.41015625 C 152.016483 220.29220055 152.016483 220.29220055 151.93359375 223.8515625 C 151 226 151 226 149 228 C 143.805857 221.21875776 138.83928131 214.3776349 134.14453125 207.23828125 C 131.74113927 203.60911559 129.28372578 200.02064532 126.8125 196.4375 C 122.69664462 190.46626602 118.59276771 184.4870861 114.5 178.5 C 108.68088119 169.99019192 102.84425102 161.49256097 97 153 C 90.60537485 143.70766405 84.2225585 134.40743444 77.85620117 125.09570312 C 73.78275247 119.13925087 69.6978294 113.19078474 65.6015625 107.25 C 63.03391745 103.52174759 60.50173571 99.77282545 58 96 C 55.33373958 97.33313021 55.01792907 98.69544323 53.75 101.375 C 51.01137836 107.0208974 48.02574741 112.50425471 45 118 C 43.51859894 120.71347076 42.03901868 123.42793118 40.55932617 126.14233398 C 39.1597519 128.70723407 37.75658708 131.27011414 36.3515625 133.83203125 C 31.89855254 141.96173357 27.465964 150.10099141 23.12109375 158.2890625 C 22.78980469 158.91332123 22.45851563 159.53757996 22.1171875 160.18075562 C 21.44007086 161.45686161 20.76296727 162.73297454 20.08587646 164.00909424 C 14.33331562 174.84896779 8.46672902 185.60517718 2.38671875 196.26635742 C -1.29428987 202.72497056 -4.85121455 209.23602819 -8.31640625 215.8125 C -9.81003646 218.64034746 -11.33318104 221.44824588 -12.875 224.25 C -17.36239612 232.43949792 -21.66463709 240.72936257 -26 249 C -29.875 247.125 -29.875 247.125 -31 246 C -31.66 246.99 -32.32 247.98 -33 249 C -37.3820019 247.41413265 -39.86901047 243.97355617 -42.75 240.5 C -43.28149658 239.86924561 -43.81299316 239.23849121 -44.3605957 238.58862305 C -47.9996797 234.25291598 -51.56684815 229.86175399 -55.078125 225.421875 C -59.37468322 220.00751301 -63.78665341 214.68452413 -68.18359375 209.3515625 C -69.65453824 207.56335548 -71.11800423 205.76897257 -72.57421875 203.96875 C -74.38427999 201.75353817 -76.21879573 199.57571572 -78.08203125 197.40625 C -79.11776798 196.16715165 -80.15293152 194.92757393 -81.1875 193.6875 C -81.94716064 192.82547974 -81.94716064 192.82547974 -82.72216797 191.94604492 C -84.10546875 190.26171875 -84.10546875 190.26171875 -86 187 C -85.30078125 183.58203125 -85.30078125 183.58203125 -84 181 C -80.57911629 183.58925508 -77.86711426 186.16808044 -75.25 189.5625 C -74.20972656 190.8928125 -74.20972656 190.8928125 -73.1484375 192.25 C -72.43945312 193.1575 -71.73046875 194.065 -71 195 C -69.63053899 196.69199816 -68.2553614 198.37938276 -66.875 200.0625 C -65.75738281 201.42568359 -65.75738281 201.42568359 -64.6171875 202.81640625 C -61.41496894 206.71382671 -58.20719661 210.60667607 -55 214.5 C -53.20806737 216.6756963 -51.41621256 218.85145657 -49.62451172 221.02734375 C -48.6185542 222.2488852 -47.61240698 223.47027049 -46.60595703 224.69140625 C -41.63881388 230.7205967 -36.75787513 236.80405328 -32 243 C -29.01798258 240.40919621 -27.48176615 237.43283157 -25.6640625 233.953125 C -25.19077011 233.05452507 -25.19077011 233.05452507 -24.70791626 232.13777161 C -24.02948043 230.84913694 -23.35335687 229.55928278 -22.67932129 228.26834106 C -20.88993194 224.84282169 -19.0823926 221.42693679 -17.2734375 218.01171875 C -16.72852661 216.98231422 -16.72852661 216.98231422 -16.17260742 215.93211365 C -12.97520945 209.91200718 -9.63963677 203.97642289 -6.25 198.0625 C -1.45394117 189.68004028 3.06933122 181.18778904 7.49243164 172.60351562 C 10.9112676 166.00131764 14.49316053 159.51408096 18.1875 153.0625 C 24.32208483 142.34360335 30.12357167 131.46256858 35.87329102 120.53417969 C 38.95307286 114.68769541 42.0399728 108.85932668 45.33984375 103.1328125 C 45.8191333 102.29919189 46.29842285 101.46557129 46.79223633 100.60668945 C 47.64769079 99.13412936 48.51505899 97.66838992 49.3972168 96.21166992 C 51.5168485 92.61135667 51.5168485 92.61135667 51.74853516 88.54223633 C 50.98215567 85.93939564 50.07074933 84.23320661 48.515625 82.0234375 C 47.99919434 81.28005127 47.48276367 80.53666504 46.95068359 79.77075195 C 46.38945801 78.98015381 45.82823242 78.18955566 45.25 77.375 C 44.05966658 75.66812861 42.86956903 73.9610927 41.6796875 72.25390625 C 41.06834961 71.38266113 40.45701172 70.51141602 39.82714844 69.61376953 C 36.9765749 65.53597153 34.17748017 61.42342291 31.375 57.3125 C 26.98740609 50.89593825 22.5888964 44.48696224 18.18115234 38.08422852 C 15.62414974 34.36821944 13.07449798 30.64731408 10.53125 26.921875 C 9.94408203 26.06207031 9.35691406 25.20226562 8.75195312 24.31640625 C 7.60923912 22.642464 6.4672762 20.96800871 5.32617188 19.29296875 C 4.80603516 18.53113281 4.28589844 17.76929688 3.75 16.984375 C 3.06164062 15.97455566 3.06164062 15.97455566 2.359375 14.94433594 C 0.99660737 12.9422447 0.99660737 12.9422447 -0.6875 10.94238281 C -2 9 -2 9 -1.75 5.9375 C -1 3 -1 3 0 0 Z" stroke-linecap="round"/>
</g>
		<g transform="matrix(1 0 0 1 142.5 -51)">
<path style="stroke: none; stroke-width: 1; stroke-dasharray: none; stroke-linecap: butt; stroke-dashoffset: 0; stroke-linejoin: miter; stroke-miterlimit: 4; is-custom-font: none; font-file-url: none; fill: rgb(49,57,66); fill-rule: nonzero; opacity: 1;" transform=" translate(5.5, -31)" d="M 0 0 C 3.70949471 1.23649824 4.27764255 2.46311534 6.43359375 5.6640625 C 7.08263672 6.62183594 7.73167969 7.57960938 8.40039062 8.56640625 C 9.07263672 9.57574219 9.74488281 10.58507812 10.4375 11.625 C 11.44006836 13.10419922 11.44006836 13.10419922 12.46289062 14.61328125 C 15.84974437 19.64153388 19.0878408 24.68214407 22 30 C 19.66706137 31.37567305 17.33371929 32.75065207 15 34.125 C 14.25395508 34.56440918 13.50791016 35.00381836 12.73925781 35.45654297 C 8.16125539 38.14975824 3.57643173 40.83081215 -1.015625 43.5 C -11.41939622 49.54817228 -21.81207397 55.59274965 -32 62 C -32.33 61.34 -32.66 60.68 -33 60 C -32.06298828 57.82373047 -32.06298828 57.82373047 -30.5703125 55.1171875 C -30.02648926 54.12251465 -29.48266602 53.1278418 -28.92236328 52.10302734 C -28.3292334 51.03777832 -27.73610352 49.9725293 -27.125 48.875 C -26.52800293 47.78783691 -25.93100586 46.70067383 -25.31591797 45.58056641 C -21.6115216 38.85009955 -17.84728078 32.15391009 -14.04467773 25.47851562 C -11.01188144 20.11763333 -8.27484335 14.63560024 -5.60546875 9.0859375 C -3.92928339 5.86407269 -2.06466852 2.9827966 0 0 Z" stroke-linecap="round"/>
</g>
		<g transform="matrix(1 0 0 1 -8.5 -348.2411)">
<path style="stroke: none; stroke-width: 1; stroke-dasharray: none; stroke-linecap: butt; stroke-dashoffset: 0; stroke-linejoin: miter; stroke-miterlimit: 4; is-custom-font: none; font-file-url: none; fill: rgb(49,57,66); fill-rule: nonzero; opacity: 1;" transform=" translate(10.1602, -26.2277)" d="M 0 0 C 4.65721608 0.93299821 8.47932128 3.81068535 12.33984375 6.46875 C 10.80603891 11.47530191 8.74591526 16.07774136 6.49609375 20.7890625 C 5.94145447 21.96068436 5.94145447 21.96068436 5.37561035 23.15597534 C 4.20022015 25.63676553 3.02005803 28.11525181 1.83984375 30.59375 C 1.04657037 32.26678267 0.25359856 33.93995838 -0.5390625 35.61328125 C -6.71261866 48.63250146 -6.71261866 48.63250146 -8.66015625 52.46875 C -11.58761959 49.69133069 -13.90646603 46.85789849 -16.15625 43.51171875 C -16.79755859 42.56361328 -17.43886719 41.61550781 -18.09960938 40.63867188 C -18.75896484 39.65447266 -19.41832031 38.67027344 -20.09765625 37.65625 C -21.4081529 35.71176677 -22.71933615 33.76774609 -24.03125 31.82421875 C -24.9591333 30.44242432 -24.9591333 30.44242432 -25.90576172 29.03271484 C -27.43388437 26.79943568 -29.01494764 24.62539187 -30.6328125 22.45703125 C -32.66015625 19.46875 -32.66015625 19.46875 -32.66015625 16.46875 C -30.50463867 14.87475586 -30.50463867 14.87475586 -27.515625 13.18359375 C -26.44634766 12.57064453 -25.37707031 11.95769531 -24.27539062 11.32617188 C -23.14423828 10.69259766 -22.01308594 10.05902344 -20.84765625 9.40625 C -18.63253396 8.14502033 -16.41767813 6.88332253 -14.203125 5.62109375 C -12.71848755 4.7856604 -12.71848755 4.7856604 -11.20385742 3.93334961 C -4.26217785 -0.06349613 -4.26217785 -0.06349613 0 0 Z" stroke-linecap="round"/>
</g>
		<g transform="matrix(1 0 0 1 -49.54 -226)">
<path style="stroke: none; stroke-width: 1; stroke-dasharray: none; stroke-linecap: butt; stroke-dashoffset: 0; stroke-linejoin: miter; stroke-miterlimit: 4; is-custom-font: none; font-file-url: none; fill: rgb(232,232,233); fill-rule: nonzero; opacity: 1;" transform=" translate(38.54, -89)" d="M 0 0 C 0.66 0 1.32 0 2 0 C 4 3 4 3 3.875 6.1875 C 3.18036111 9.21414086 2.57247138 11.07512816 1.18359375 13.734375 C -0.90511723 17.80435877 -2.87338995 21.91950183 -4.8125 26.0625 C -5.15796875 26.79855469 -5.5034375 27.53460938 -5.859375 28.29296875 C -8.36579839 33.63633289 -10.86182676 38.98454854 -13.35473633 44.33422852 C -15.8955536 49.78417027 -18.45680136 55.22439828 -21.01953125 60.6640625 C -23.18926667 65.27160875 -25.34899283 69.88368324 -27.5 74.5 C -30.3245915 80.56190871 -33.16931011 86.61416781 -36.01953125 92.6640625 C -38.47998229 97.88895853 -40.92603148 103.12041393 -43.36425781 108.35571289 C -44.84428744 111.53129834 -46.33037945 114.70382105 -47.828125 117.87109375 C -51.29470816 125.20459336 -54.71584533 132.5555015 -58.07714844 139.93798828 C -62.05574362 148.6747867 -66.06796512 157.37373182 -70.45117188 165.91625977 C -72.48181276 169.88367439 -74.28288295 173.89043632 -76 178 C -76.66 178 -77.32 178 -78 178 C -79.81054688 175.96118164 -79.81054688 175.96118164 -81 173 C -80.18510406 170.24423075 -79.32740819 168.14081245 -78.03125 165.62109375 C -77.68521729 164.9056691 -77.33918457 164.19024445 -76.98266602 163.45314026 C -75.84143115 161.10440089 -74.67074817 158.77164806 -73.5 156.4375 C -72.6988191 154.79997716 -71.90001167 153.16129105 -71.10351562 151.52148438 C -69.49670441 148.21698172 -67.88073898 144.91722113 -66.2578125 141.62060547 C -63.23524803 135.46086568 -60.36242706 129.23567161 -57.5 123 C -52.19617181 111.52543626 -46.80337484 100.0942116 -41.39648438 88.66796875 C -36.2073081 77.6997276 -31.06622894 66.71115051 -25.97290039 55.69799805 C -20.62658277 44.15593224 -15.1844568 32.65937709 -9.734375 21.16601562 C -6.40781005 14.1447606 -3.1056201 7.12275986 0 0 Z" stroke-linecap="round"/>
</g>
		<g transform="matrix(1 0 0 1 149 -89.5)">
<path style="stroke: none; stroke-width: 1; stroke-dasharray: none; stroke-linecap: butt; stroke-dashoffset: 0; stroke-linejoin: miter; stroke-miterlimit: 4; is-custom-font: none; font-file-url: none; fill: rgb(65,72,81); fill-rule: nonzero; opacity: 1;" transform=" translate(-1, -5.5)" d="M 0 0 C 1.70884005 1.62339805 3.37446717 3.29319053 5 5 C 5 5.66 5 6.32 5 7 C 4.34 7 3.68 7 3 7 C 2.34 8.32 1.68 9.64 1 11 C -0.32 9.35 -1.64 7.7 -3 6 C -2.01 4.02 -1.02 2.04 0 0 Z" stroke-linecap="round"/>
</g>
		<g transform="matrix(1 0 0 1 -91 -135.5)">
<path style="stroke: none; stroke-width: 1; stroke-dasharray: none; stroke-linecap: butt; stroke-dashoffset: 0; stroke-linejoin: miter; stroke-miterlimit: 4; is-custom-font: none; font-file-url: none; fill: rgb(65,72,80); fill-rule: nonzero; opacity: 1;" transform=" translate(-1, -5.5)" d="M 0 0 C 0.99 0.66 1.98 1.32 3 2 C 3 2.66 3 3.32 3 4 C 3.66 4.33 4.32 4.66 5 5 C 4.01 6.98 3.02 8.96 2 11 C 0.5 9.625 0.5 9.625 -1 8 C -1 7.34 -1 6.68 -1 6 C -1.66 5.67 -2.32 5.34 -3 5 C -2.01 3.35 -1.02 1.7 0 0 Z" stroke-linecap="round"/>
</g>
		<g transform="matrix(1 0 0 1 -7.5 -315)">
<path style="stroke: none; stroke-width: 1; stroke-dasharray: none; stroke-linecap: butt; stroke-dashoffset: 0; stroke-linejoin: miter; stroke-miterlimit: 4; is-custom-font: none; font-file-url: none; fill: rgb(59,66,75); fill-rule: nonzero; opacity: 1;" transform=" translate(-0.5, -6)" d="M 0 0 C 2.0625 1.6875 2.0625 1.6875 4 4 C 3.82813436 7.52324572 2.98272184 9.02591724 1 12 C 0.71125 11.030625 0.4225 10.06125 0.125 9.0625 C -0.64214682 5.89335797 -0.64214682 5.89335797 -3 5 C -2.01 3.35 -1.02 1.7 0 0 Z" stroke-linecap="round"/>
</g>
		<g transform="matrix(1 0 0 1 53.5 -228)">
<path style="stroke: none; stroke-width: 1; stroke-dasharray: none; stroke-linecap: butt; stroke-dashoffset: 0; stroke-linejoin: miter; stroke-miterlimit: 4; is-custom-font: none; font-file-url: none; fill: rgb(62,69,77); fill-rule: nonzero; opacity: 1;" transform=" translate(-1.5, -5)" d="M 0 0 C 0.66 0 1.32 0 2 0 C 3.625 2.5 3.625 2.5 5 5 C 3.68 6.65 2.36 8.3 1 10 C -0.625 8.375 -0.625 8.375 -2 6 C -1.1875 2.75 -1.1875 2.75 0 0 Z" stroke-linecap="round"/>
</g>
		<g transform="matrix(1 0 0 1 -35 -67.5)">
<path style="stroke: none; stroke-width: 1; stroke-dasharray: none; stroke-linecap: butt; stroke-dashoffset: 0; stroke-linejoin: miter; stroke-miterlimit: 4; is-custom-font: none; font-file-url: none; fill: rgb(61,68,76); fill-rule: nonzero; opacity: 1;" transform=" translate(0, -4.5)" d="M 0 0 C 1.32 1.65 2.64 3.3 4 5 C 3.34 6.32 2.68 7.64 2 9 C 0 8 -2 7 -4 6 C -4 4 -4 4 -2 1.875 C -1.34 1.25625 -0.68 0.6375 0 0 Z" stroke-linecap="round"/>
</g>
</g>
</g>
</svg>