<?xml version="1.0" encoding="UTF-8"?>
<svg version="1.1" xmlns="http://www.w3.org/2000/svg" width="1200" height="1200">
<path d="M0 0 C396 0 792 0 1200 0 C1200 396 1200 792 1200 1200 C804 1200 408 1200 0 1200 C0 804 0 408 0 0 Z " fill="#F2F2F2" transform="translate(0,0)"/>
<path d="M0 0 C3.65709179 1.37300618 6.95590808 3.02306228 10.33203125 4.984375 C11.36553711 5.58266113 12.39904297 6.18094727 13.46386719 6.79736328 C14.56891602 7.4417334 15.67396484 8.08610352 16.8125 8.75 C17.97673748 9.42587788 19.14112792 10.10149233 20.30566406 10.77685547 C23.29544037 12.51195642 26.28275976 14.25124008 29.26934814 15.99182129 C31.93746648 17.54611431 34.60757231 19.09698618 37.27734375 20.6484375 C47.34820096 26.50664322 57.39972679 32.39779382 67.4375 38.3125 C68.38592773 38.87018066 69.33435547 39.42786133 70.31152344 40.00244141 C71.60944824 40.76886963 71.60944824 40.76886963 72.93359375 41.55078125 C73.69728271 42.00106689 74.46097168 42.45135254 75.24780273 42.9152832 C77 44 77 44 78 45 C78.12382731 46.46549458 78.17952113 47.93681101 78.20773315 49.40725708 C78.2278949 50.35984909 78.24805664 51.3124411 78.26882935 52.29389954 C78.29407181 53.87536018 78.29407181 53.87536018 78.31982422 55.48876953 C78.34085205 56.59313858 78.36187988 57.69750763 78.38354492 58.83534241 C78.56764721 69.10777892 78.6745364 79.38144419 78.75568962 89.65516853 C78.81679971 97.2276647 78.91946503 104.7971131 79.07838428 112.36819947 C79.19986371 118.36266788 79.24755028 124.35573755 79.27234268 130.35146713 C79.29360461 132.87822623 79.33718774 135.40491403 79.405056 137.93085098 C79.86437001 155.87349697 76.65398216 167.6348199 66.59792709 182.55924225 C64.17032207 186.26729365 62.10531278 190.14909949 60.046875 194.0703125 C59.31954799 195.43127701 58.59175932 196.79199502 57.86328125 198.15234375 C57.34241943 199.13243408 57.34241943 199.13243408 56.81103516 200.13232422 C55.71284256 202.19478348 54.6044527 204.25158314 53.49609375 206.30859375 C52.78324106 207.6455066 52.07097589 208.98273293 51.359375 210.3203125 C51.03346375 210.92231476 50.70755249 211.52431702 50.37176514 212.14456177 C48.66081046 215.39105523 47.33535957 218.32167806 47 222 C48.33378575 223.8354799 48.33378575 223.8354799 50 225 C50.27690674 224.27417725 50.55381348 223.54835449 50.83911133 222.80053711 C51.93975192 220.14534294 53.1799855 217.70263183 54.57421875 215.19140625 C55.07356934 214.28616211 55.57291992 213.38091797 56.08740234 212.44824219 C56.61543457 211.49594727 57.1434668 210.54365234 57.6875 209.5625 C61.20408216 203.17880869 64.6645847 196.79347568 67.875 190.25 C70.6178122 184.67025949 73.47475135 179.13408695 77 174 C77.33 174 77.66 174 78 174 C78 201.39 78 228.78 78 257 C74 259 74 259 71 259 C69.3560139 256.86527177 67.92525221 254.77557026 66.5 252.5 C65.61571506 251.13208024 64.73025489 249.76491963 63.84375 248.3984375 C63.15152344 247.32287598 63.15152344 247.32287598 62.4453125 246.22558594 C60.01814436 242.48807499 57.51423365 238.80428466 55 235.125 C54.53142578 234.42955078 54.06285156 233.73410156 53.58007812 233.01757812 C51.3132821 229.45547128 51.3132821 229.45547128 48 227 C47.34 228.32 46.68 229.64 46 231 C44.68 230.01 43.36 229.02 42 228 C33.10983284 243.39400112 24.6911454 259.00185559 16.44438171 274.74728394 C15.36402343 276.79976261 14.27184758 278.84558211 13.17749023 280.890625 C11.68254542 283.6859094 10.2481689 286.50381854 8.84008789 289.34375 C4.2780526 298.31325857 0.21852964 303.56802211 -9.0625 308.125 C-11.18685293 309.26440461 -13.31053116 310.4050679 -15.43359375 311.546875 C-16.51624512 312.11083984 -17.59889648 312.67480469 -18.71435547 313.25585938 C-24.11803069 316.12432838 -29.36070388 319.26042715 -34.625 322.375 C-43.05356195 327.30261366 -51.50655971 332.18505674 -60 337 C-63.82449349 333.27339117 -67.35351899 329.37877024 -70.8125 325.3125 C-71.33948486 324.69528076 -71.86646973 324.07806152 -72.40942383 323.44213867 C-76.05327784 319.15711774 -79.60724209 314.80963576 -83.09765625 310.3984375 C-89.55354448 302.25898089 -96.22901173 294.29030544 -102.83520508 286.27270508 C-106.87253254 281.37199467 -110.90164512 276.4648223 -114.91796875 271.546875 C-116.37603516 269.76327407 -117.83723916 267.98223559 -119.30078125 266.203125 C-123.49597661 261.09838308 -127.61606267 255.95927371 -131.58984375 250.6796875 C-132.91269074 248.87804075 -132.91269074 248.87804075 -135 248 C-135.33 249.32 -135.66 250.64 -136 252 C-138 251 -140 250 -142 249 C-142.25869873 249.68723145 -142.51739746 250.37446289 -142.78393555 251.08251953 C-144.16078987 254.38575365 -145.7762713 257.52485393 -147.45703125 260.6796875 C-147.79657837 261.32108673 -148.13612549 261.96248596 -148.48596191 262.62332153 C-149.59173475 264.70886331 -150.70181647 266.79206984 -151.8125 268.875 C-152.19038666 269.58575684 -152.56827332 270.29651367 -152.95761108 271.02880859 C-158.44988101 281.35449093 -164.06051911 291.60038038 -169.88793945 301.74169922 C-172.76544928 306.75579462 -175.46738167 311.80241749 -178 317 C-182.38878624 316.04775031 -185.9974283 313.94235024 -189.875 311.75 C-190.6580249 311.31107422 -191.4410498 310.87214844 -192.24780273 310.41992188 C-201.35633346 305.28392847 -210.33999321 299.93527598 -219.32568359 294.58837891 C-223.50114554 292.10841219 -227.68770059 289.64740991 -231.875 287.1875 C-232.60082275 286.76082031 -233.32664551 286.33414062 -234.07446289 285.89453125 C-235.71617543 284.92946093 -237.35806477 283.96469139 -239 283 C-238.11982633 279.15716383 -236.57793888 275.78789922 -234.875 272.25 C-232.27284902 266.77032741 -229.77844496 261.25710432 -227.375 255.6875 C-225.18020647 250.62041847 -222.87937262 245.64029968 -220.3671875 240.72265625 C-215.57741608 231.18416859 -211.17385879 221.45500319 -206.875 211.6875 C-203.79000721 204.68024498 -200.49870074 197.81162975 -197 191 C-195.99812339 189.00093941 -194.99765877 187.0011689 -194 185 C-193.34 185 -192.68 185 -192 185 C-190.546875 186.58984375 -190.546875 186.58984375 -188.75 188.9375 C-184.92983735 193.83621495 -181.02055986 198.64944763 -177.0625 203.4375 C-175.84101349 204.91785956 -174.61965739 206.39832673 -173.3984375 207.87890625 C-172.81545898 208.58547363 -172.23248047 209.29204102 -171.63183594 210.02001953 C-167.33847914 215.22934383 -163.07152468 220.46035498 -158.8046875 225.69140625 C-157.32003641 227.50971586 -155.83308677 229.32615133 -154.34375 231.140625 C-152.64908432 233.20811713 -150.96274826 235.28125215 -149.28125 237.359375 C-148.37525445 238.46895781 -147.46900981 239.57833729 -146.5625 240.6875 C-145.73878906 241.70199219 -144.91507813 242.71648437 -144.06640625 243.76171875 C-143.38449219 244.50035156 -142.70257812 245.23898437 -142 246 C-139.87635519 246.22609337 -139.87635519 246.22609337 -138.375 244.5 C-137.92125 244.005 -137.4675 243.51 -137 243 C-135.02 244.98 -135.02 244.98 -133 247 C-132.773125 246.01 -132.54625 245.02 -132.3125 244 C-131.26025259 240.32081327 -129.56760603 237.48606091 -127.46777344 234.31152344 C-122.6333376 226.69801071 -118.6640415 218.49997717 -114.44433594 210.53540039 C-108.34432073 199.0251051 -102.13479663 187.60036004 -95.66503906 176.29223633 C-91.30382486 168.63158017 -87.21778382 160.84419626 -83.17797852 153.01025391 C-80.45837659 147.74941445 -77.67175126 142.5528344 -74.6875 137.4375 C-71.46865541 131.90905146 -68.61044263 126.25891411 -65.7890625 120.51953125 C-63.31580295 115.6540141 -60.60572857 110.94218339 -57.8671875 106.22265625 C-55.52375887 102.17803571 -53.25345793 98.09522643 -51 94 C-50.01 94 -49.02 94 -48 94 C-46.45703125 95.765625 -46.45703125 95.765625 -44.8125 98.25 C-44.20180664 99.16056152 -43.59111328 100.07112305 -42.96191406 101.00927734 C-42.31448242 101.99621582 -41.66705078 102.9831543 -41 104 C-39.64091864 106.0340504 -38.28154178 108.06790338 -36.921875 110.1015625 C-36.25349609 111.10864258 -35.58511719 112.11572266 -34.89648438 113.15332031 C-32.38640715 116.9210212 -29.82469962 120.65130395 -27.25 124.375 C-26.36697769 125.65740764 -25.48416324 126.93995843 -24.6015625 128.22265625 C-24.17262695 128.84543457 -23.74369141 129.46821289 -23.30175781 130.10986328 C-14.28599166 143.20064751 -5.30569896 156.31552233 3.66601562 169.43652344 C9.70652283 178.27014414 15.75069497 187.10111133 21.81884766 195.91577148 C24.37585026 199.63178056 26.92550202 203.35268592 29.46875 207.078125 C30.05591797 207.93792969 30.64308594 208.79773438 31.24804688 209.68359375 C32.39076088 211.357536 33.5327238 213.03199129 34.67382812 214.70703125 C35.4540332 215.84978516 35.4540332 215.84978516 36.25 217.015625 C36.70890625 217.68883789 37.1678125 218.36205078 37.640625 219.05566406 C39.05028922 221.07192948 40.51333628 223.04000878 42 225 C44.22407631 222.34028318 44.22407631 222.34028318 43.83935547 220.14355469 C42.75402857 217.37183561 41.2598574 215.15559366 39.5703125 212.703125 C38.86277832 211.66986084 38.15524414 210.63659668 37.42626953 209.57202148 C36.65930349 208.46459524 35.89221101 207.35725655 35.125 206.25 C34.34305638 205.11242527 33.56164654 203.97448345 32.78076172 202.83618164 C31.23210972 200.58073594 29.68024153 198.32756706 28.125 196.07666016 C26.34952748 193.50605989 24.57883847 190.9323474 22.8125 188.35546875 C20.63599374 185.18114057 18.45416757 182.01053408 16.26953125 178.84179688 C7.25962715 165.77050524 -1.70524445 152.66847309 -10.66601562 139.56347656 C-19.79725102 126.20885706 -19.79725102 126.20885706 -28.95947266 112.87548828 C-31.32449309 109.44216996 -33.68019839 106.00291732 -36.0234375 102.5546875 C-36.52149902 101.82403076 -37.01956055 101.09337402 -37.53271484 100.34057617 C-38.48617757 98.9414767 -39.43716683 97.54068725 -40.38525391 96.13793945 C-42.4097856 93.17249773 -44.40852994 90.48178067 -47 88 C-47.99 89.32 -48.98 90.64 -50 92 C-51.625 90.375 -51.625 90.375 -53 88 C-52.1875 84.75 -52.1875 84.75 -51 82 C-49 82 -49 82 -47.375 83.5 C-46.92125 83.995 -46.4675 84.49 -46 85 C-45.60844727 84.26700684 -45.21689453 83.53401367 -44.81347656 82.77880859 C-36.72864292 67.64983355 -28.60626937 52.54363979 -20.36694336 37.49804688 C-18.37692507 33.86134976 -16.39260773 30.22154964 -14.40820312 26.58178711 C-12.96111746 23.92871309 -11.5119686 21.27677274 -10.0625 18.625 C-6.68280285 12.43038268 -3.34021942 6.21597045 0 0 Z " fill="#303841" transform="translate(703,285)"/>
<path d="M0 0 C4.4904114 4.13416105 7.74533282 8.74909971 11.125 13.8125 C12.28363597 15.52749118 13.44249348 17.24233271 14.6015625 18.95703125 C15.17551758 19.80990723 15.74947266 20.6627832 16.34082031 21.54150391 C18.70427648 25.04356448 21.10065511 28.52247689 23.5 32 C26.36892079 36.16628093 29.2317735 40.33654886 32.08203125 44.515625 C32.6116748 45.29139893 33.14131836 46.06717285 33.68701172 46.86645508 C34.7675029 48.45084009 35.84596722 50.03660931 36.92236328 51.6237793 C39.86844059 55.95146224 42.87487731 60.22071059 45.97265625 64.44140625 C46.62387451 65.33891602 47.27509277 66.23642578 47.94604492 67.16113281 C49.20654785 68.89370613 50.4809516 70.61627353 51.77075195 72.32714844 C52.33882568 73.11250977 52.90689941 73.89787109 53.4921875 74.70703125 C54.00120605 75.3925708 54.51022461 76.07811035 55.03466797 76.78442383 C56.3942656 79.90489638 55.87435211 81.74561077 55 85 C53.80761719 87.70288086 53.80761719 87.70288086 52.296875 90.46484375 C51.73581055 91.49931641 51.17474609 92.53378906 50.59667969 93.59960938 C49.98727539 94.70111328 49.37787109 95.80261719 48.75 96.9375 C48.11039814 98.10839397 47.47141041 99.2796236 46.83300781 100.45117188 C42.3769022 108.60479911 37.78864929 116.68236375 33.17871094 124.74975586 C27.85230857 134.13471108 22.84642209 143.68305049 17.82583618 153.23358154 C12.68248604 163.01170054 7.41608894 172.69342245 1.91552734 182.27661133 C-3.61994373 191.9745686 -8.81305044 201.85251246 -14.00219727 211.73876953 C-15.98102974 215.50362112 -17.97983914 219.25716338 -20 223 C-20.32488403 223.60378479 -20.64976807 224.20756958 -20.98449707 224.82965088 C-21.91608101 226.5462768 -22.86774904 228.25195764 -23.8203125 229.95703125 C-24.63266357 231.42039917 -24.63266357 231.42039917 -25.46142578 232.91333008 C-25.96915527 233.60193115 -26.47688477 234.29053223 -27 235 C-27.99 235 -28.98 235 -30 235 C-31.9453125 232.98046875 -31.9453125 232.98046875 -34.125 230.1875 C-35.31996094 228.67736328 -35.31996094 228.67736328 -36.5390625 227.13671875 C-37.35117187 226.10160156 -38.16328125 225.06648437 -39 224 C-40.49537799 222.16289473 -41.99526106 220.32944577 -43.5 218.5 C-45.69225146 215.8210008 -47.88419468 213.14175792 -50.07421875 210.4609375 C-55.30546415 204.05967233 -60.55837477 197.676505 -65.81567383 191.29663086 C-70.55686677 185.54173651 -75.28444503 179.77593109 -80 174 C-81.32 175.32 -82.64 176.64 -84 178 C-84.66 176.68 -85.32 175.36 -86 174 C-86.66 174 -87.32 174 -88 174 C-88.25040039 174.81919922 -88.50080078 175.63839844 -88.75878906 176.48242188 C-90.19956979 180.56557859 -91.98151063 184.38464408 -93.859375 188.28125 C-94.24039871 189.07939117 -94.62142242 189.87753235 -95.01399231 190.69985962 C-95.83159267 192.41179791 -96.65071587 194.12300959 -97.47122192 195.83355713 C-99.63800677 200.35162646 -101.79277403 204.87542633 -103.94921875 209.3984375 C-104.38133163 210.30399384 -104.81344452 211.20955017 -105.25865173 212.14254761 C-108.77232292 219.50977919 -112.25486983 226.89105256 -115.70553589 234.28799438 C-116.27503707 235.50878865 -116.84512217 236.72931071 -117.415802 237.94955444 C-120.32680316 244.17478721 -123.19766704 250.41379843 -125.9765625 256.69921875 C-126.43732178 257.7361084 -126.89808105 258.77299805 -127.37280273 259.84130859 C-128.22317943 261.76314414 -129.06447544 263.68903459 -129.89477539 265.61962891 C-130.2633667 266.45284668 -130.63195801 267.28606445 -131.01171875 268.14453125 C-131.32584717 268.87003174 -131.63997559 269.59553223 -131.96362305 270.34301758 C-133 272 -133 272 -136 273 C-138.3215332 271.95532227 -138.3215332 271.95532227 -141.05078125 270.31640625 C-142.56575195 269.41825195 -142.56575195 269.41825195 -144.11132812 268.50195312 C-145.6959082 267.54192383 -145.6959082 267.54192383 -147.3125 266.5625 C-156.16005004 261.28096822 -165.05023384 256.11415209 -174 251 C-174 190.61 -174 130.22 -174 68 C-170.29916731 71.70083269 -167.085116 75.31355899 -163.9375 79.4375 C-160.02547471 84.49403295 -155.9980742 89.41752811 -151.8125 94.25 C-147.73747979 98.95643441 -143.76609262 103.71854246 -139.90234375 108.6015625 C-133.44645552 116.74101911 -126.77098827 124.70969456 -120.16479492 132.72729492 C-115.43023628 138.47433947 -110.71081214 144.23346913 -106 150 C-104.50014304 151.83345036 -103.0001406 153.66678171 -101.5 155.5 C-97 161 -92.5 166.5 -88 172 C-86.68 170.68 -85.36 169.36 -84 168 C-83.34 169.32 -82.68 170.64 -82 172 C-81.34 172 -80.68 172 -80 172 C-79.79375 171.0925 -79.5875 170.185 -79.375 169.25 C-78.07187235 164.70715221 -75.91444146 160.67769644 -73.765625 156.484375 C-71.81945461 152.64370247 -69.95819164 148.77053224 -68.125 144.875 C-67.78919922 144.16142334 -67.45339844 143.44784668 -67.10742188 142.71264648 C-64.62396571 137.40231504 -62.23704182 132.05274162 -59.875 126.6875 C-57.25641767 120.74184444 -54.50950276 114.89923442 -51.55859375 109.109375 C-48.23270079 102.47426023 -45.1379463 95.72550413 -42 89 C-41.54923096 88.03441162 -41.54923096 88.03441162 -41.08935547 87.04931641 C-39.94053239 84.58810248 -38.79206083 82.12672603 -37.64477539 79.66479492 C-35.10419161 74.21514573 -32.54304353 68.77527246 -29.98046875 63.3359375 C-27.5214132 58.11400486 -25.07627938 52.88573354 -22.64013672 47.65307617 C-21.13690786 44.42685063 -19.62579458 41.20464305 -18.1015625 37.98828125 C-13.97334676 29.26985099 -9.94965427 20.51346818 -6.05712891 11.68676758 C-4.25166182 7.62671834 -2.41386705 3.74644349 0 0 Z " fill="#303841" transform="translate(593,291)"/>
<path d="M0 0 C1.52753652 2.07286395 2.9286186 4.14557214 4.3125 6.3125 C5.20456826 7.67914389 6.09786062 9.04498932 6.9921875 10.41015625 C7.71293457 11.51447998 7.71293457 11.51447998 8.44824219 12.64111328 C11.23313968 16.87454305 14.08342163 21.06302809 16.9375 25.25 C17.49284424 26.07153564 18.04818848 26.89307129 18.62036133 27.73950195 C19.14654053 28.51124756 19.67271973 29.28299316 20.21484375 30.078125 C20.68011475 30.76293945 21.14538574 31.44775391 21.62475586 32.15332031 C22.95951238 33.94563317 24.37912116 35.46596994 26 37 C26.99 35.68 27.98 34.36 29 33 C30.5625 34.6875 30.5625 34.6875 32 37 C31.75925978 40.37036311 31.41201979 41.58798021 29 44 C28.01 41.525 28.01 41.525 27 39 C26.34 39 25.68 39 25 39 C24.63648438 40.21042969 24.27296875 41.42085938 23.8984375 42.66796875 C21.94630736 48.51183091 19.26033496 53.95155108 16.53546143 59.46810913 C14.94827375 62.68339578 13.38117652 65.90846477 11.8125 69.1328125 C11.49100983 69.7927269 11.16951965 70.4526413 10.83828735 71.1325531 C7.68736661 77.61399697 4.64505363 84.14412922 1.625 90.6875 C-3.1866659 101.10378487 -8.04472044 111.49662871 -12.9375 121.875 C-18.54835381 133.77923514 -24.13171001 145.69578747 -29.6887207 157.62524414 C-32.87465643 164.46130413 -36.07433947 171.29070674 -39.2890625 178.11328125 C-39.65086609 178.88123016 -40.01266968 179.64917908 -40.38543701 180.44039917 C-42.14601852 184.17650144 -43.90801504 187.91192884 -45.671875 191.64648438 C-48.8576902 198.3983227 -52.00852691 205.15909326 -55 212 C-55.66 212 -56.32 212 -57 212 C-58.234375 210.62890625 -58.234375 210.62890625 -59.75 208.5625 C-63.33760102 203.81155555 -67.08104702 199.21114691 -70.875 194.625 C-71.48786865 193.88306396 -72.1007373 193.14112793 -72.73217773 192.37670898 C-73.93855848 190.91630264 -75.14517613 189.45609196 -76.35205078 187.99609375 C-80.60685306 182.84242509 -84.8270957 177.66036192 -89.0546875 172.484375 C-93.69063373 166.812558 -98.34167208 161.15344292 -103 155.5 C-109.03536619 148.175355 -115.05094229 140.834968 -121.0546875 133.484375 C-124.5525222 129.20497284 -128.05563109 124.93032291 -131.57421875 120.66796875 C-132.20110596 119.90822754 -132.82799316 119.14848633 -133.47387695 118.36572266 C-134.72032926 116.85563776 -135.96753598 115.34617517 -137.21557617 113.83740234 C-137.79154541 113.13953613 -138.36751465 112.44166992 -138.9609375 111.72265625 C-139.47446777 111.10140869 -139.98799805 110.48016113 -140.51708984 109.84008789 C-141.0064502 109.23285889 -141.49581055 108.62562988 -142 108 C-142.81331787 107.03356567 -142.81331787 107.03356567 -143.64306641 106.04760742 C-147.19675183 100.68511018 -146.31446254 92.36308658 -145.55859375 86.21582031 C-144.66667659 82.67777831 -143.07556407 81.48179001 -140 79.625 C-138.10517098 78.74496626 -136.20728191 77.86996932 -134.28515625 77.05126953 C-129.66095613 74.92393986 -125.36625584 72.16784507 -121 69.5625 C-118.91037392 68.34374472 -116.81917272 67.12768685 -114.7265625 65.9140625 C-107.60032653 61.77060813 -100.4862 57.60668656 -93.375 53.4375 C-92.75984528 53.07692505 -92.14469055 52.7163501 -91.51089478 52.34484863 C-83.56002439 47.68381807 -75.61861298 43.00708822 -67.6875 38.3125 C-50.34803611 28.05228338 -32.92586758 17.93519785 -15.46386719 7.88525391 C-14.43036133 7.29019043 -13.39685547 6.69512695 -12.33203125 6.08203125 C-11.42171143 5.55843018 -10.5113916 5.0348291 -9.57348633 4.49536133 C-7.79543477 3.46219884 -6.0356035 2.39726305 -4.29174805 1.30737305 C-2 0 -2 0 0 0 Z " fill="#303841" transform="translate(564,246)"/>
<path d="M0 0 C3.76723044 1.41174711 7.17394666 3.13541188 10.6640625 5.1328125 C11.77273682 5.76614502 12.88141113 6.39947754 14.02368164 7.05200195 C15.2242404 7.742794 16.42467669 8.43379892 17.625 9.125 C18.87424204 9.84143451 20.12351004 10.55782376 21.37280273 11.27416992 C31.108126 16.86704016 40.7757878 22.57070297 50.42358398 28.31298828 C59.90350738 33.9551796 69.4360815 39.50162055 79 45 C78.39916261 48.92848397 77.19147512 51.88354816 75.296875 55.3671875 C74.73532715 56.40576904 74.1737793 57.44435059 73.59521484 58.5144043 C72.6818335 60.17789917 72.6818335 60.17789917 71.75 61.875 C71.12174316 63.03104736 70.49348633 64.18709473 69.84619141 65.37817383 C65.25685994 73.80625328 60.53368635 82.15690809 55.77441406 90.48999023 C51.32633237 98.31907708 47.13718651 106.26972912 43.04443359 114.28979492 C40.26558842 119.70722348 37.30303318 124.88388882 34 130 C24.23349019 117.97292725 15.79756833 104.87424881 7.11328125 92.0625 C3.42545441 86.62196767 -0.28635641 81.19868382 -4.0168457 75.78735352 C-6.52776642 72.14408513 -9.02960097 68.49483523 -11.5234375 64.83984375 C-12.4211084 63.5247583 -12.4211084 63.5247583 -13.33691406 62.18310547 C-14.50901686 60.46528031 -15.68027159 58.74687612 -16.85058594 57.02783203 C-17.63997559 55.87130127 -17.63997559 55.87130127 -18.4453125 54.69140625 C-18.91469238 54.00248291 -19.38407227 53.31355957 -19.86767578 52.60375977 C-20.90457943 51.03882027 -20.90457943 51.03882027 -22 50 C-22.40664995 45.84636119 -21.45262323 43.38520282 -19.5 39.75 C-16.91598249 34.80033266 -14.47643788 29.81423642 -12.125 24.75 C-8.23799881 16.42111686 -4.14991043 8.20048789 0 0 Z " fill="#303841" transform="translate(619,236)"/>
<path d="M0 0 C3.17404746 1.37159745 4.97625583 2.84226057 7.13671875 5.52734375 C7.7090625 6.23117187 8.28140625 6.935 8.87109375 7.66015625 C9.47050781 8.41167969 10.06992187 9.16320312 10.6875 9.9375 C11.31398438 10.7109375 11.94046875 11.484375 12.5859375 12.28125 C13.83536657 13.8243593 15.08201559 15.36972428 16.32568359 16.91748047 C18.36815183 19.4579083 20.43204707 21.98029087 22.5 24.5 C23.1909375 25.345625 23.881875 26.19125 24.59375 27.0625 C27.72176157 30.88111153 30.86086292 34.69053284 34 38.5 C39.34687778 44.98903285 44.68004995 51.48886569 50 58 C51.03447266 59.26263672 51.03447266 59.26263672 52.08984375 60.55078125 C53.54475284 62.32666486 54.99784332 64.10403977 56.44921875 65.8828125 C58.44185976 68.32341157 60.44859443 70.75207489 62.45703125 73.1796875 C63.65898071 74.64052089 64.86080403 76.10145808 66.0625 77.5625 C66.64741211 78.26592529 67.23232422 78.96935059 67.83496094 79.6940918 C68.37540039 80.35320557 68.91583984 81.01231934 69.47265625 81.69140625 C69.96000244 82.28123291 70.44734863 82.87105957 70.94946289 83.47875977 C72 85 72 85 72 87 C71.04222656 87.53367187 70.08445312 88.06734375 69.09765625 88.6171875 C67.7525941 89.36977367 66.40754291 90.12237944 65.0625 90.875 C64.34900391 91.27195068 63.63550781 91.66890137 62.90039062 92.07788086 C59.02465969 94.24763128 55.20169092 96.47189469 51.43359375 98.82421875 C50.3206897 99.50991943 50.3206897 99.50991943 49.18530273 100.20947266 C47.76034023 101.09173633 46.34391234 101.98798221 44.93774414 102.89990234 C41.15877685 105.22180169 37.8165474 106.84931705 33.22900391 106.55444336 C28.08139455 105.27402487 23.66950229 102.24121857 19.1875 99.5 C17.46622326 98.47686779 15.74494178 97.45374348 14.02340698 96.43104553 C12.22512552 95.35858875 10.43201428 94.27794252 8.64013672 93.19482422 C5.03412484 91.0164567 1.41206187 88.86601299 -2.21484375 86.72265625 C-3.39763308 86.02345337 -4.5804131 85.32423474 -5.76318359 84.625 C-6.63000763 84.11259766 -6.63000763 84.11259766 -7.51434326 83.58984375 C-10.33625922 81.91953783 -13.15398054 80.24217259 -15.97265625 78.56640625 C-22.60436516 74.63202635 -29.27766608 70.77742978 -36 67 C-34.67977581 63.54935291 -33.17793551 60.31759724 -31.41796875 57.0703125 C-30.90451904 56.12148193 -30.39106934 55.17265137 -29.86206055 54.19506836 C-29.30945557 53.1819458 -28.75685059 52.16882324 -28.1875 51.125 C-27.61362549 50.06869385 -27.03975098 49.0123877 -26.44848633 47.92407227 C-21.90400767 39.5885042 -17.24823445 31.31895581 -12.5546875 23.06665039 C-8.22991654 15.4497008 -4.05861588 7.76164306 0 0 Z " fill="#303841" transform="translate(565,539)"/>
<path d="M0 0 C3.53002506 4.23102295 6.54012446 8.71638956 9.5625 13.3125 C14.8059868 21.2318736 20.15007545 29.07446348 25.54638672 36.89013672 C28.20781083 40.75309056 30.85297646 44.627171 33.5 48.5 C37.16562126 53.86216546 40.83546415 59.22127413 44.52270508 64.56860352 C45.45144046 65.91851518 46.37716269 67.27050585 47.29956055 68.62475586 C49.17744285 71.38013352 51.06819746 74.08978056 53.0859375 76.74609375 C55.99868136 80.65391526 55.99868136 80.65391526 57 83 C56.25 86.875 56.25 86.875 55 90 C55.99 91.485 55.99 91.485 57 93 C58.98 91.02 58.98 91.02 61 89 C68.93032429 99.93451773 76.54235782 111.07614682 84.13037109 122.25 C86.95308915 126.40187988 89.78835626 130.54512705 92.625 134.6875 C93.6875052 136.23957978 94.75000522 137.7916631 95.8125 139.34375 C96.33585938 140.10816406 96.85921875 140.87257813 97.3984375 141.66015625 C99.03712194 144.05423424 100.67493448 146.44890654 102.3125 148.84375 C109.19344211 158.90611593 116.08944981 168.95794866 123 179 C124.79195165 181.60397073 126.58364183 184.20812095 128.375 186.8125 C128.8194043 187.45848145 129.26380859 188.10446289 129.72167969 188.77001953 C132.28906584 192.50415021 134.85032637 196.24238794 137.40625 199.984375 C137.9832666 200.82895264 138.5602832 201.67353027 139.15478516 202.54370117 C140.26971368 204.17621857 141.38401119 205.80916718 142.49755859 207.44262695 C143.2683374 208.57124146 143.2683374 208.57124146 144.0546875 209.72265625 C144.54670654 210.44445068 145.03872559 211.16624512 145.5456543 211.90991211 C146.95327871 213.9328553 148.41514921 215.90617364 149.88671875 217.8828125 C152 221 152 221 151.9375 223.8125 C151 226 151 226 149 228 C143.805857 221.21875776 138.83928131 214.3776349 134.14453125 207.23828125 C131.7411389 203.60911503 129.28370538 200.0206598 126.8125 196.4375 C125.86844911 195.06773622 124.92443969 193.69794387 123.98046875 192.328125 C123.49497559 191.62365234 123.00948242 190.91917969 122.50927734 190.19335938 C119.87369692 186.3631985 117.24946433 182.52528255 114.625 178.6875 C114.08286865 177.8948877 113.5407373 177.10227539 112.98217773 176.28564453 C110.7658683 173.04508937 108.54993743 169.80427543 106.33398438 166.56347656 C98.90444412 155.69853784 91.46166395 144.84290113 84 134 C82.65949099 132.05204218 81.31907066 130.10402381 79.97900391 128.15576172 C79.08062937 126.84983033 78.18187 125.54416358 77.28271484 124.23876953 C74.6823339 120.46019245 72.09677632 116.6720541 69.5234375 112.875 C68.93739746 112.01237549 68.35135742 111.14975098 67.74755859 110.26098633 C66.60454673 108.57776642 65.46413753 106.89277545 64.32666016 105.20581055 C63.8063623 104.44051025 63.28606445 103.67520996 62.75 102.88671875 C62.29109375 102.20826904 61.8321875 101.52981934 61.359375 100.83081055 C60.03152658 99.04246009 58.61551467 97.52909652 57 96 C56.50185791 96.9132605 56.50185791 96.9132605 55.99365234 97.8449707 C48.2109375 112.11328125 48.2109375 112.11328125 46.59912109 115.06811523 C45.54978427 116.99200622 44.50062467 118.91599388 43.45166016 120.84008789 C41.0891872 125.17306594 38.72443669 129.50473945 36.3515625 133.83203125 C31.89855243 141.96173377 27.4659768 150.10099807 23.12109375 158.2890625 C22.78998596 158.91295868 22.45887817 159.53685486 22.11773682 160.17965698 C21.44079838 161.45539417 20.76387793 162.7311409 20.0869751 164.00689697 C19.57985992 164.96254547 19.57985992 164.96254547 19.0625 165.9375 C18.72281189 166.57766052 18.38312378 167.21782104 18.03314209 167.87738037 C13.06105137 177.2377368 7.93601203 186.49467953 2.67236328 195.69506836 C-1.76458756 203.48856625 -5.94053627 211.40514596 -10.04394531 219.37866211 C-12.5892599 224.32388286 -15.20968978 229.18891774 -18 234 C-19.04775466 235.89247553 -20.08992654 237.78805892 -21.125 239.6875 C-21.62257813 240.59886719 -22.12015625 241.51023437 -22.6328125 242.44921875 C-23.79420262 244.61604088 -24.91514445 246.79412704 -26 249 C-29.875 247.125 -29.875 247.125 -31 246 C-31.66 246.99 -32.32 247.98 -33 249 C-37.3820019 247.41413265 -39.86901047 243.97355617 -42.75 240.5 C-43.28149658 239.86924561 -43.81299316 239.23849121 -44.3605957 238.58862305 C-47.9996797 234.25291598 -51.56684815 229.86175399 -55.078125 225.421875 C-59.37468322 220.00751301 -63.78665341 214.68452413 -68.18359375 209.3515625 C-69.65442055 207.56349855 -71.11920034 205.77044461 -72.578125 203.97265625 C-74.38417211 201.75587907 -76.20819223 199.56041172 -78.046875 197.37109375 C-79.07356045 196.1229251 -80.09961021 194.87423327 -81.125 193.625 C-81.62306152 193.04194092 -82.12112305 192.45888184 -82.63427734 191.8581543 C-86.04376402 187.65295913 -86.04376402 187.65295913 -85.8046875 184.0859375 C-85.53914063 183.39757812 -85.27359375 182.70921875 -85 182 C-84.01 182 -83.02 182 -82 182 C-79.97946703 184.07740723 -78.14542018 186.1414681 -76.3125 188.375 C-75.50304932 189.34119263 -75.50304932 189.34119263 -74.67724609 190.3269043 C-71.14229177 194.56261816 -67.67499866 198.85154136 -64.25390625 203.1796875 C-61.22908894 206.96464087 -58.14598007 210.70028144 -55.0625 214.4375 C-54.45414307 215.17524658 -53.84578613 215.91299316 -53.21899414 216.6730957 C-52.02632357 218.11923889 -50.83353705 219.56528647 -49.640625 221.01123047 C-43.65782869 228.2635904 -37.72669143 235.54241148 -32 243 C-29.01798258 240.40919621 -27.48176615 237.43283157 -25.6640625 233.953125 C-25.19077011 233.05452507 -25.19077011 233.05452507 -24.70791626 232.13777161 C-24.02948043 230.84913694 -23.35335687 229.55928278 -22.67932129 228.26834106 C-20.88993194 224.84282169 -19.0823926 221.42693679 -17.2734375 218.01171875 C-16.72852661 216.98231422 -16.72852661 216.98231422 -16.17260742 215.93211365 C-12.97520945 209.91200718 -9.63963677 203.97642289 -6.25 198.0625 C-1.45394117 189.68004028 3.06933122 181.18778904 7.49243164 172.60351562 C10.9112676 166.00131764 14.49316053 159.51408096 18.1875 153.0625 C24.32208483 142.34360335 30.12357167 131.46256858 35.87329102 120.53417969 C38.95307286 114.68769541 42.0399728 108.85932668 45.33984375 103.1328125 C45.8191333 102.29919189 46.29842285 101.46557129 46.79223633 100.60668945 C47.64769079 99.13412936 48.51505899 97.66838992 49.3972168 96.21166992 C51.5168485 92.61135667 51.5168485 92.61135667 51.74853516 88.54223633 C50.98215567 85.93939564 50.07074933 84.23320661 48.515625 82.0234375 C47.99919434 81.28005127 47.48276367 80.53666504 46.95068359 79.77075195 C46.38945801 78.98015381 45.82823242 78.18955566 45.25 77.375 C44.05966658 75.66812861 42.86956903 73.9610927 41.6796875 72.25390625 C41.06834961 71.38266113 40.45701172 70.51141602 39.82714844 69.61376953 C36.9765749 65.53597153 34.17748017 61.42342291 31.375 57.3125 C26.98740609 50.89593825 22.5888964 44.48696224 18.18115234 38.08422852 C15.62414974 34.36821944 13.07449798 30.64731408 10.53125 26.921875 C9.94408203 26.06207031 9.35691406 25.20226562 8.75195312 24.31640625 C7.60923912 22.642464 6.4672762 20.96800871 5.32617188 19.29296875 C4.80603516 18.53113281 4.28589844 17.76929688 3.75 16.984375 C3.06164062 15.97455566 3.06164062 15.97455566 2.359375 14.94433594 C0.94971078 12.92807052 -0.51333628 10.95999122 -2 9 C-4.81939093 13.01221017 -6.90379728 16.80293325 -8.75 21.375 C-10.93396701 26.66160368 -13.33538011 31.78178068 -15.9375 36.875 C-18.64231357 42.18079306 -21.15864475 47.52410935 -23.5 53 C-26.11921856 59.12372253 -28.99521054 65.06723294 -32.01953125 71 C-34.34732807 75.60166785 -36.47217792 80.25915569 -38.5 85 C-41.11931082 91.12368556 -43.9952075 97.06722697 -47.01953125 103 C-49.34732807 107.60166785 -51.47217792 112.25915569 -53.5 117 C-56.11931082 123.12368556 -58.9952075 129.06722697 -62.01953125 135 C-64.67216018 140.243807 -67.03700112 145.57832066 -69.34667969 150.98022461 C-71.77146708 156.59912333 -74.45711733 162.06444908 -77.24804688 167.50976562 C-79.34354124 171.6107638 -81.22726022 175.74870739 -83 180 C-83.66 180 -84.32 180 -85 180 C-86.80834961 177.95678711 -86.80834961 177.95678711 -88 175 C-87.19676073 172.26599915 -86.35162038 170.18918376 -85.06640625 167.69140625 C-84.72306244 166.98135941 -84.37971863 166.27131256 -84.02597046 165.53974915 C-82.89115851 163.20379316 -81.7268485 160.8838545 -80.5625 158.5625 C-79.76466624 156.93164506 -78.96919877 155.29963052 -78.17602539 153.66650391 C-76.56247011 150.34807968 -74.93953456 147.03451414 -73.30957031 143.72412109 C-70.08475956 137.15426984 -67.00975936 130.51715088 -63.9375 123.875 C-62.8039672 121.43662075 -61.66784919 118.99945119 -60.53125 116.5625 C-60.24752533 115.95384598 -59.96380066 115.34519196 -59.67147827 114.71809387 C-56.11485543 107.09368728 -52.52435665 99.48521472 -48.9375 91.875 C-43.59268107 80.53461669 -38.28843801 69.17678514 -33.0234375 57.79907227 C-27.65821323 46.22449733 -22.20075312 34.69370018 -16.73461914 23.16650391 C-13.40796176 16.14509095 -10.10569295 9.12292695 -7 2 C-5 2 -5 2 -3.375 3.5 C-2.694375 4.2425 -2.694375 4.2425 -2 5 C-1.34 3.35 -0.68 1.7 0 0 Z " fill="#E8E8E9" transform="translate(596,283)"/>
<path d="M0 0 C32 0 32 0 38 3 C42.24897598 9.36364008 41.47756244 16.12122627 41.4375 23.5 C41.4674707 25.45873047 41.4674707 25.45873047 41.49804688 27.45703125 C41.49740234 28.71902344 41.49675781 29.98101563 41.49609375 31.28125 C41.49887329 32.99924805 41.49887329 32.99924805 41.50170898 34.75195312 C40.88897602 38.71876548 39.49688674 40.89063711 37 44 C34.25 45.375 34.25 45.375 32 46 C32.27972656 46.6084375 32.55945313 47.216875 32.84765625 47.84375 C34.24154811 50.89148782 35.62244925 53.94483794 37 57 C37.30486328 57.67417969 37.60972656 58.34835937 37.92382812 59.04296875 C38.89292095 61.19259283 39.85354514 63.34583667 40.8125 65.5 C41.28345093 66.54124023 41.28345093 66.54124023 41.76391602 67.60351562 C43.07675297 70.57059266 44 72.7182316 44 76 C39.38 76 34.76 76 30 76 C26.7629299 69.81748774 24.18415129 63.53614699 21.75 57 C21.38648438 56.03449219 21.02296875 55.06898438 20.6484375 54.07421875 C19.76177374 51.71755982 18.87905628 49.35950476 18 47 C16.68 47 15.36 47 14 47 C13.67 56.57 13.34 66.14 13 76 C8.71 76 4.42 76 0 76 C0 50.92 0 25.84 0 0 Z " fill="#323A43" transform="translate(444,744)"/>
<path d="M0 0 C0.8971875 0.7425 0.8971875 0.7425 1.8125 1.5 C2.1425 0.51 2.4725 -0.48 2.8125 -1.5 C7.1025 -1.5 11.3925 -1.5 15.8125 -1.5 C15.8125 17.97 15.8125 37.44 15.8125 57.5 C11.5225 57.5 7.2325 57.5 2.8125 57.5 C2.4825 56.51 2.1525 55.52 1.8125 54.5 C1.11125 54.98597656 0.41 55.47195313 -0.3125 55.97265625 C-5.08865245 58.50998724 -9.9106154 58.1650921 -15.1875 57.5 C-18.93627014 55.40068872 -20.54210547 53.38718397 -22.1875 49.5 C-22.45492554 47.4269104 -22.45492554 47.4269104 -22.47802734 45.19384766 C-22.49078705 44.3526236 -22.50354675 43.51139954 -22.51669312 42.64468384 C-22.51891876 41.7435788 -22.52114441 40.84247375 -22.5234375 39.9140625 C-22.5300943 38.9795224 -22.5367511 38.0449823 -22.54360962 37.0821228 C-22.55372548 35.10685186 -22.55842697 33.13154682 -22.55810547 31.15625 C-22.56247441 28.14265271 -22.59879345 25.13052536 -22.63671875 22.1171875 C-22.64258806 20.19531749 -22.64655669 18.27344055 -22.6484375 16.3515625 C-22.66280853 15.45450592 -22.67717957 14.55744934 -22.69198608 13.63320923 C-22.65071932 7.94926959 -21.88904061 4.87156139 -18.1875 0.5 C-13.10785002 -3.1045778 -5.3988819 -2.5406503 0 0 Z " fill="#323A43" transform="translate(709.1875,762.5)"/>
<path d="M0 0 C1.40668945 -0.0309375 1.40668945 -0.0309375 2.84179688 -0.0625 C9.0668822 -0.09759562 13.22712222 0.6217991 18.31079102 4.48291016 C20.28833714 7.02121107 20.13708669 9.00550809 20.234375 12.1953125 C20.29431641 13.93361328 20.29431641 13.93361328 20.35546875 15.70703125 C20.38253906 16.91746094 20.40960937 18.12789062 20.4375 19.375 C20.48003906 20.59316406 20.52257812 21.81132813 20.56640625 23.06640625 C20.76273224 29.58879194 20.76273224 29.58879194 20.6875 32.25 C19.6875 33.25 19.6875 33.25 17.27905273 33.36352539 C16.23692627 33.35828857 15.1947998 33.35305176 14.12109375 33.34765625 C12.99638672 33.34443359 11.87167969 33.34121094 10.71289062 33.33789062 C9.52888672 33.32951172 8.34488281 33.32113281 7.125 33.3125 C5.93712891 33.30798828 4.74925781 33.30347656 3.52539062 33.29882812 C0.57940588 33.28699686 -2.36655316 33.26906076 -5.3125 33.25 C-4.9825 38.2 -4.6525 43.15 -4.3125 48.25 C-1.0125 48.25 2.2875 48.25 5.6875 48.25 C6.0175 45.94 6.3475 43.63 6.6875 41.25 C10.9775 41.25 15.2675 41.25 19.6875 41.25 C20.13577586 52.45689655 20.13577586 52.45689655 16.6875 56.25 C11.17294539 59.89972938 6.00374333 59.70078705 -0.375 59.625 C-1.35533203 59.63660156 -2.33566406 59.64820313 -3.34570312 59.66015625 C-12.52002308 59.62278631 -12.52002308 59.62278631 -16.3125 56.25 C-18.096081 53.30391718 -18.57298025 51.07574827 -18.61889648 47.65258789 C-18.63488388 46.74807388 -18.65087128 45.84355988 -18.66734314 44.91163635 C-18.67270584 43.94177292 -18.67806854 42.97190948 -18.68359375 41.97265625 C-18.69713646 40.46740639 -18.69713646 40.46740639 -18.71095276 38.93174744 C-18.72544918 36.81105531 -18.73434048 34.69031853 -18.73803711 32.56958008 C-18.74994483 29.32752196 -18.79914695 26.08736031 -18.84960938 22.84570312 C-18.85907255 20.78386345 -18.86630809 18.72201209 -18.87109375 16.66015625 C-18.89062607 15.69231705 -18.91015839 14.72447784 -18.93028259 13.72731018 C-18.89922003 9.08833328 -18.84444839 6.94980397 -15.96508789 3.16186523 C-10.90133827 -0.48785619 -6.00057207 0.03258966 0 0 Z " fill="#323A43" transform="translate(521.3125,760.75)"/>
<path d="M0 0 C4.29 0 8.58 0 13 0 C13.20681396 1.17095215 13.41362793 2.3419043 13.62670898 3.54833984 C14.39326633 7.88369793 15.16390421 12.21832228 15.93579102 16.55273438 C16.26959185 18.43046557 16.60227877 20.30839512 16.93383789 22.18652344 C17.41000855 24.88268852 17.8901522 27.57811991 18.37109375 30.2734375 C18.51904892 31.11619232 18.66700409 31.95894714 18.81944275 32.82723999 C19.51111223 37.03551683 19.51111223 37.03551683 21 41 C21.176521 39.82904785 21.35304199 38.6580957 21.53491211 37.45166016 C22.18937398 33.11634011 22.84827946 28.78170526 23.50854492 24.44726562 C23.79394266 22.56952066 24.07812737 20.69159092 24.36108398 18.81347656 C24.76749654 16.11734561 25.17823584 13.42190454 25.58984375 10.7265625 C25.71592514 9.88380768 25.84200653 9.04105286 25.97190857 8.17276001 C26.88612829 2.22774341 26.88612829 2.22774341 28 0 C32.29 0 36.58 0 41 0 C40.38876352 7.28791534 39.26218688 14.29010687 37.75 21.44140625 C37.53182617 22.49029526 37.31365234 23.53918427 37.08886719 24.61985779 C36.63076124 26.81618785 36.17011576 29.01198964 35.70703125 31.20727539 C34.99573302 34.582749 34.29419523 37.96015005 33.59375 41.33789062 C33.14640635 43.47668243 32.69850982 45.61535869 32.25 47.75390625 C32.03956055 48.76731583 31.82912109 49.7807254 31.61230469 50.82484436 C31.41540039 51.75348801 31.21849609 52.68213165 31.015625 53.63891602 C30.84321289 54.4592482 30.67080078 55.27958038 30.49316406 56.12477112 C30 58 30 58 29 59 C27.65732587 59.08631874 26.31025678 59.10706473 24.96484375 59.09765625 C24.15595703 59.09443359 23.34707031 59.09121094 22.51367188 59.08789062 C21.66353516 59.07951172 20.81339844 59.07113281 19.9375 59.0625 C19.08349609 59.05798828 18.22949219 59.05347656 17.34960938 59.04882812 C15.23304337 59.03700373 13.11651315 59.01906769 11 59 C9.42654413 51.40253314 7.86075717 43.80351496 6.30029297 36.20336914 C5.76853072 33.61804425 5.23501359 31.03307967 4.69970703 28.44848633 C3.930601 24.73351871 3.16781408 21.0173013 2.40625 17.30078125 C2.16563843 16.14540359 1.92502686 14.99002594 1.67712402 13.79963684 C1.34678162 12.17852242 1.34678162 12.17852242 1.00976562 10.5246582 C0.81435181 9.57645706 0.61893799 8.62825592 0.41760254 7.65132141 C0 5 0 5 0 0 Z " fill="#323A43" transform="translate(634,761)"/>
<path d="M0 0 C4.29 0 8.58 0 13 0 C13.20681396 1.17095215 13.41362793 2.3419043 13.62670898 3.54833984 C14.39326633 7.88369793 15.16390421 12.21832228 15.93579102 16.55273438 C16.26959185 18.43046557 16.60227877 20.30839512 16.93383789 22.18652344 C17.41000855 24.88268852 17.8901522 27.57811991 18.37109375 30.2734375 C18.51904892 31.11619232 18.66700409 31.95894714 18.81944275 32.82723999 C19.51111223 37.03551683 19.51111223 37.03551683 21 41 C21.176521 39.82904785 21.35304199 38.6580957 21.53491211 37.45166016 C22.18937398 33.11634011 22.84827946 28.78170526 23.50854492 24.44726562 C23.79394266 22.56952066 24.07812737 20.69159092 24.36108398 18.81347656 C24.76749654 16.11734561 25.17823584 13.42190454 25.58984375 10.7265625 C25.71592514 9.88380768 25.84200653 9.04105286 25.97190857 8.17276001 C26.88612829 2.22774341 26.88612829 2.22774341 28 0 C32.29 0 36.58 0 41 0 C40.38876352 7.28791534 39.26218688 14.29010687 37.75 21.44140625 C37.53182617 22.49029526 37.31365234 23.53918427 37.08886719 24.61985779 C36.63076124 26.81618785 36.17011576 29.01198964 35.70703125 31.20727539 C34.99573302 34.582749 34.29419523 37.96015005 33.59375 41.33789062 C33.14640635 43.47668243 32.69850982 45.61535869 32.25 47.75390625 C32.03956055 48.76731583 31.82912109 49.7807254 31.61230469 50.82484436 C31.41540039 51.75348801 31.21849609 52.68213165 31.015625 53.63891602 C30.84321289 54.4592482 30.67080078 55.27958038 30.49316406 56.12477112 C30 58 30 58 29 59 C27.65732587 59.08631874 26.31025678 59.10706473 24.96484375 59.09765625 C24.15595703 59.09443359 23.34707031 59.09121094 22.51367188 59.08789062 C21.66353516 59.07951172 20.81339844 59.07113281 19.9375 59.0625 C19.08349609 59.05798828 18.22949219 59.05347656 17.34960938 59.04882812 C15.23304337 59.03700373 13.11651315 59.01906769 11 59 C9.42654413 51.40253314 7.86075717 43.80351496 6.30029297 36.20336914 C5.76853072 33.61804425 5.23501359 31.03307967 4.69970703 28.44848633 C3.930601 24.73351871 3.16781408 21.0173013 2.40625 17.30078125 C2.16563843 16.14540359 1.92502686 14.99002594 1.67712402 13.79963684 C1.34678162 12.17852242 1.34678162 12.17852242 1.00976562 10.5246582 C0.81435181 9.57645706 0.61893799 8.62825592 0.41760254 7.65132141 C0 5 0 5 0 0 Z " fill="#323A43" transform="translate(553,761)"/>
<path d="M0 0 C3.70949471 1.23649824 4.27764255 2.46311534 6.43359375 5.6640625 C7.08263672 6.62183594 7.73167969 7.57960938 8.40039062 8.56640625 C9.07263672 9.57574219 9.74488281 10.58507812 10.4375 11.625 C11.44006836 13.10419922 11.44006836 13.10419922 12.46289062 14.61328125 C15.84974437 19.64153388 19.0878408 24.68214407 22 30 C19.66706137 31.37567305 17.33371929 32.75065207 15 34.125 C14.25395508 34.56440918 13.50791016 35.00381836 12.73925781 35.45654297 C8.16125539 38.14975824 3.57643173 40.83081215 -1.015625 43.5 C-11.41939622 49.54817228 -21.81207397 55.59274965 -32 62 C-32.33 61.34 -32.66 60.68 -33 60 C-32.12646484 57.95068359 -32.12646484 57.95068359 -30.7109375 55.3984375 C-30.18773926 54.44485352 -29.66454102 53.49126953 -29.12548828 52.50878906 C-28.54782715 51.47463867 -27.97016602 50.44048828 -27.375 49.375 C-26.17157907 47.19026715 -24.96846287 45.00536642 -23.765625 42.8203125 C-23.14236328 41.69399414 -22.51910156 40.56767578 -21.87695312 39.40722656 C-19.48513482 35.06536702 -17.13515377 30.70167223 -14.78637695 26.33642578 C-10.01077523 17.46454378 -5.20437991 8.62980813 0 0 Z " fill="#313942" transform="translate(748,518)"/>
<path d="M0 0 C4.65721608 0.93299821 8.47932128 3.81068535 12.33984375 6.46875 C10.85096209 11.29015841 8.91214334 15.73812811 6.75 20.28125 C6.4048082 21.0131958 6.05961639 21.7451416 5.70396423 22.49926758 C4.60658402 24.82393711 3.50445958 27.14632251 2.40234375 29.46875 C1.66572015 31.02850632 0.92938922 32.5884009 0.19335938 34.1484375 C-2.70514787 40.28286514 -5.60355106 46.41088944 -8.66015625 52.46875 C-11.58761959 49.69133069 -13.90646603 46.85789849 -16.15625 43.51171875 C-16.79755859 42.56361328 -17.43886719 41.61550781 -18.09960938 40.63867188 C-18.75896484 39.65447266 -19.41832031 38.67027344 -20.09765625 37.65625 C-21.4081529 35.71176677 -22.71933615 33.76774609 -24.03125 31.82421875 C-24.9591333 30.44242432 -24.9591333 30.44242432 -25.90576172 29.03271484 C-27.43388437 26.79943568 -29.01494764 24.62539187 -30.6328125 22.45703125 C-32.66015625 19.46875 -32.66015625 19.46875 -32.66015625 16.46875 C-30.50463867 14.87475586 -30.50463867 14.87475586 -27.515625 13.18359375 C-26.44634766 12.57064453 -25.37707031 11.95769531 -24.27539062 11.32617188 C-23.14423828 10.69259766 -22.01308594 10.05902344 -20.84765625 9.40625 C-18.63253396 8.14502033 -16.41767813 6.88332253 -14.203125 5.62109375 C-12.71848755 4.7856604 -12.71848755 4.7856604 -11.20385742 3.93334961 C-4.26217785 -0.06349613 -4.26217785 -0.06349613 0 0 Z " fill="#313942" transform="translate(601.66015625,225.53125)"/>
<path d="M0 0 C4.62 0 9.24 0 14 0 C14 26.4 14 52.8 14 80 C9.38 80 4.76 80 0 80 C0 53.6 0 27.2 0 0 Z " fill="#363D46" transform="translate(743,740)"/>
<path d="M0 0 C4.62 0 9.24 0 14 0 C14 19.47 14 38.94 14 59 C9.38 59 4.76 59 0 59 C0 39.53 0 20.06 0 0 Z " fill="#363D46" transform="translate(607,761)"/>
<path d="M0 0 C3.3 0 6.6 0 10 0 C11.09419678 6.18308021 11.14908095 12.23092512 11.125 18.5 C11.12886719 19.50675781 11.13273438 20.51351562 11.13671875 21.55078125 C11.12982746 26.80883882 10.91665587 31.82016683 10 37 C2.25 38.125 2.25 38.125 0 37 C0 24.79 0 12.58 0 0 Z " fill="#EBEBEC" transform="translate(701,772)"/>
<path d="M0 0 C10.05859375 -0.09765625 10.05859375 -0.09765625 13 0 C14.68516954 1.68516954 14.13008019 3.78767788 14.1328125 6.09375 C14.13474609 7.63869141 14.13474609 7.63869141 14.13671875 9.21484375 C14.13285156 10.29894531 14.12898438 11.38304687 14.125 12.5 C14.12886719 13.58410156 14.13273437 14.66820312 14.13671875 15.78515625 C14.13542969 16.81511719 14.13414062 17.84507812 14.1328125 18.90625 C14.13168457 19.85822266 14.13055664 20.81019531 14.12939453 21.79101562 C14 24 14 24 13 25 C8.66469082 25.14393457 4.33842269 25.04212061 0 25 C0 16.75 0 8.5 0 0 Z " fill="#EAEAEA" transform="translate(457,755)"/>
<path d="M0 0 C0.9075 0.00257813 1.815 0.00515625 2.75 0.0078125 C4.11125 0.00394531 4.11125 0.00394531 5.5 0 C7.75 0.1328125 7.75 0.1328125 8.75 1.1328125 C8.82271741 3.48594805 8.83370868 5.84114918 8.8125 8.1953125 C8.80347656 9.48566406 8.79445313 10.77601563 8.78515625 12.10546875 C8.77355469 13.10449219 8.76195312 14.10351562 8.75 15.1328125 C4.79 15.1328125 0.83 15.1328125 -3.25 15.1328125 C-3.27685412 12.82037458 -3.29632841 10.5078498 -3.3125 8.1953125 C-3.32410156 6.90753906 -3.33570313 5.61976563 -3.34765625 4.29296875 C-3.22086861 0.19012072 -3.22086861 0.19012072 0 0 Z " fill="#ECECED" transform="translate(519.25,770.8671875)"/>
<path d="M0 0 C4.62 0 9.24 0 14 0 C14 3.63 14 7.26 14 11 C9.38 11 4.76 11 0 11 C0 7.37 0 3.74 0 0 Z " fill="#303841" transform="translate(607,740)"/>
<path d="M0 0 C1.70884005 1.62339805 3.37446717 3.29319053 5 5 C5 5.66 5 6.32 5 7 C4.34 7 3.68 7 3 7 C2.34 8.32 1.68 9.64 1 11 C-0.32 9.35 -1.64 7.7 -3 6 C-2.01 4.02 -1.02 2.04 0 0 Z " fill="#404850" transform="translate(748,505)"/>
<path d="M0 0 C0.66 0 1.32 0 2 0 C3.625 2.5 3.625 2.5 5 5 C3.68 6.65 2.36 8.3 1 10 C-0.625 8.375 -0.625 8.375 -2 6 C-1.1875 2.75 -1.1875 2.75 0 0 Z " fill="#3D444D" transform="translate(652,367)"/>
<path d="M0 0 C2.0625 1.6875 2.0625 1.6875 4 4 C3.83849795 7.39154295 3.41703243 8.58296757 1 11 C0.71125 10.195625 0.4225 9.39125 0.125 8.5625 C-0.73262568 5.8673532 -0.73262568 5.8673532 -3 5 C-2.01 3.35 -1.02 1.7 0 0 Z " fill="#394049" transform="translate(592,279)"/>
<path d="M0 0 C1.32 1.65 2.64 3.3 4 5 C3.34 6.32 2.68 7.64 2 9 C0 8 -2 7 -4 6 C-4 4 -4 4 -2 1.875 C-1.34 1.25625 -0.68 0.6375 0 0 Z " fill="#3D444D" transform="translate(565,528)"/>
<path d="M0 0 C0.99 0.66 1.98 1.32 3 2 C3 2.66 3 3.32 3 4 C3.66 4.33 4.32 4.66 5 5 C3.68 6.65 2.36 8.3 1 10 C0.71125 9.360625 0.4225 8.72125 0.125 8.0625 C-0.82823451 5.84793921 -0.82823451 5.84793921 -3 5 C-2.01 3.35 -1.02 1.7 0 0 Z " fill="#3A424A" transform="translate(508,459)"/>
</svg>
